<?xml version="1.0" encoding="utf-8"?>
<!DOCTYPE score-partwise  PUBLIC "-//Recordare//DTD MusicXML 3.1 Partwise//EN" "http://www.musicxml.org/dtds/partwise.dtd">
<score-partwise version="3.1">
  <work>
    <work-title>s9m4</work-title>
  </work>
  <movement-title>3.musicxml</movement-title>
  <identification>
    <creator type="composer">Beethoven. arr Liszt</creator>
    <encoding>
      <encoding-date>2026-03-11</encoding-date>
      <software>music21 v.8.3.0</software>
      <software>MuseScore 3.6.0</software>
      <supports attribute="new-system" element="print" type="yes" value="yes" />
      <supports attribute="new-page" element="print" type="yes" value="yes" />
    </encoding>
  </identification>
  <defaults>
    <scaling>
      <millimeters>7</millimeters>
      <tenths>40</tenths>
    </scaling>
  </defaults>
  <part-list>
    <score-part id="P1">
      <part-name>Piano</part-name>
      <part-abbreviation>Pno.</part-abbreviation>
      <score-instrument id="I366202fb94f4671bee451c2875b53171">
        <instrument-name>Piano</instrument-name>
        <instrument-abbreviation>Pno</instrument-abbreviation>
      </score-instrument>
      <midi-instrument id="I366202fb94f4671bee451c2875b53171">
        <midi-channel>1</midi-channel>
        <midi-program>1</midi-program>
      </midi-instrument>
    </score-part>
  </part-list>
  <!--=========================== Part 1 ===========================-->
  <part id="P1">
    <!--======================== Measure 233 =========================-->
    <measure number="233" width="213.76">
      <attributes>
        <divisions>10080</divisions>
        <key>
          <fifths>2</fifths>
        </key>
        <time>
          <beats>3</beats>
          <beat-type>4</beat-type>
        </time>
        <staves>2</staves>
        <clef number="1">
          <sign>F</sign>
          <line>4</line>
        </clef>
        <clef number="2">
          <sign>F</sign>
          <line>4</line>
        </clef>
      </attributes>
      <note default-x="16.5" default-y="20">
        <pitch>
          <step>E</step>
          <octave>4</octave>
        </pitch>
        <duration>5040</duration>
        <voice>1</voice>
        <type>eighth</type>
        <stem>down</stem>
        <staff>1</staff>
        <beam number="1">begin</beam>
        <notations>
          <slur number="1" placement="above" type="start" />
        </notations>
      </note>
      <note default-x="49.08" default-y="15">
        <pitch>
          <step>D</step>
          <octave>4</octave>
        </pitch>
        <duration>5040</duration>
        <voice>1</voice>
        <type>eighth</type>
        <stem>down</stem>
        <staff>1</staff>
        <beam number="1">end</beam>
        <notations>
          <slur number="1" type="stop" />
        </notations>
      </note>
      <direction placement="below">
        <direction-type>
          <words default-y="-40" enclosure="none" relative-y="-25">..</words>
        </direction-type>
        <staff>1</staff>
      </direction>
      <note default-x="81.65" default-y="15">
        <pitch>
          <step>D</step>
          <octave>4</octave>
        </pitch>
        <duration>5040</duration>
        <voice>1</voice>
        <type>eighth</type>
        <stem>down</stem>
        <staff>1</staff>
        <beam number="1">begin</beam>
        <notations>
          <slur number="2" placement="above" type="start" />
        </notations>
      </note>
      <note default-x="114.23" default-y="10">
        <pitch>
          <step>C</step>
          <alter>1</alter>
          <octave>4</octave>
        </pitch>
        <duration>5040</duration>
        <voice>1</voice>
        <type>eighth</type>
        <stem>down</stem>
        <staff>1</staff>
        <beam number="1">continue</beam>
      </note>
      <note default-x="146.81" default-y="15">
        <pitch>
          <step>D</step>
          <octave>4</octave>
        </pitch>
        <duration>5040</duration>
        <voice>1</voice>
        <type>eighth</type>
        <stem>down</stem>
        <staff>1</staff>
        <beam number="1">continue</beam>
      </note>
      <note default-x="179.38" default-y="0">
        <pitch>
          <step>A</step>
          <octave>3</octave>
        </pitch>
        <duration>5040</duration>
        <voice>1</voice>
        <type>eighth</type>
        <stem>down</stem>
        <staff>1</staff>
        <beam number="1">end</beam>
        <notations>
          <slur number="2" type="stop" />
        </notations>
      </note>
      <backup>
        <duration>30240</duration>
      </backup>
      <note print-object="no" print-spacing="yes">
        <rest measure="yes" />
        <duration>30240</duration>
        <voice>6</voice>
        <staff>2</staff>
      </note>
      <backup>
        <duration>30240</duration>
      </backup>
      <note>
        <rest measure="yes" />
        <duration>30240</duration>
        <voice>9</voice>
        <staff>2</staff>
      </note>
    </measure>
    <!--======================== Measure 234 =========================-->
    <measure number="234" width="191.33">
      <note default-x="13" default-y="-5">
        <pitch>
          <step>G</step>
          <octave>3</octave>
        </pitch>
        <duration>5040</duration>
        <voice>1</voice>
        <type>eighth</type>
        <stem>down</stem>
        <staff>1</staff>
        <beam number="1">begin</beam>
        <notations>
          <slur number="3" placement="above" type="start" />
        </notations>
      </note>
      <note default-x="42.42" default-y="-10">
        <pitch>
          <step>F</step>
          <alter>1</alter>
          <octave>3</octave>
        </pitch>
        <duration>5040</duration>
        <voice>1</voice>
        <type>eighth</type>
        <stem>down</stem>
        <staff>1</staff>
        <beam number="1">end</beam>
        <notations>
          <slur number="3" type="stop" />
        </notations>
      </note>
      <note default-x="71.84" default-y="-10">
        <pitch>
          <step>F</step>
          <alter>1</alter>
          <octave>3</octave>
        </pitch>
        <duration>5040</duration>
        <voice>1</voice>
        <type>eighth</type>
        <stem>down</stem>
        <staff>1</staff>
        <beam number="1">begin</beam>
        <notations>
          <slur number="4" placement="above" type="start" />
        </notations>
      </note>
      <note default-x="101.26" default-y="-15">
        <pitch>
          <step>E</step>
          <octave>3</octave>
        </pitch>
        <duration>5040</duration>
        <voice>1</voice>
        <type>eighth</type>
        <stem>down</stem>
        <staff>1</staff>
        <beam number="1">continue</beam>
      </note>
      <note default-x="130.69" default-y="-20">
        <pitch>
          <step>D</step>
          <octave>3</octave>
        </pitch>
        <duration>5040</duration>
        <voice>1</voice>
        <type>eighth</type>
        <stem>down</stem>
        <staff>1</staff>
        <beam number="1">continue</beam>
      </note>
      <note default-x="160.11" default-y="-25">
        <pitch>
          <step>C</step>
          <alter>0</alter>
          <octave>3</octave>
        </pitch>
        <duration>5040</duration>
        <voice>1</voice>
        <type>eighth</type>
        <accidental>natural</accidental>
        <stem>down</stem>
        <staff>1</staff>
        <beam number="1">end</beam>
        <notations>
          <slur number="4" type="stop" />
        </notations>
      </note>
      <backup>
        <duration>30240</duration>
      </backup>
      <note print-object="no" print-spacing="yes">
        <rest measure="yes" />
        <duration>30240</duration>
        <voice>6</voice>
        <staff>2</staff>
      </note>
      <backup>
        <duration>30240</duration>
      </backup>
      <note>
        <rest measure="yes" />
        <duration>30240</duration>
        <voice>9</voice>
        <staff>2</staff>
      </note>
    </measure>
    <!--======================== Measure 235 =========================-->
    <measure number="235" width="394.82">
      <print new-system="yes">
        <system-layout>
          <system-margins>
            <left-margin>0</left-margin>
            <right-margin>0</right-margin>
          </system-margins>
          <system-distance>150</system-distance>
        </system-layout>
      </print>
      <note default-x="100.44" default-y="-25">
        <pitch>
          <step>C</step>
          <alter>0</alter>
          <octave>3</octave>
        </pitch>
        <duration>5040</duration>
        <voice>1</voice>
        <type>eighth</type>
        <accidental>natural</accidental>
        <stem>up</stem>
        <staff>1</staff>
        <beam number="1">begin</beam>
        <notations>
          <slur number="5" placement="below" type="start" />
        </notations>
      </note>
      <note default-x="152.69" default-y="-30">
        <pitch>
          <step>B</step>
          <octave>2</octave>
        </pitch>
        <duration>5040</duration>
        <voice>1</voice>
        <type>eighth</type>
        <stem>up</stem>
        <staff>1</staff>
        <beam number="1">end</beam>
        <notations>
          <slur number="5" type="stop" />
        </notations>
      </note>
      <note default-x="204.94" default-y="-5">
        <pitch>
          <step>G</step>
          <octave>3</octave>
        </pitch>
        <duration>20160</duration>
        <tie type="start" />
        <voice>1</voice>
        <type>half</type>
        <stem>down</stem>
        <staff>1</staff>
        <notations>
          <tied type="start" />
        </notations>
      </note>
      <backup>
        <duration>30240</duration>
      </backup>
      <attributes>
        <staff-details print-object="yes" />
      </attributes>
      <direction placement="below">
        <direction-type>
          <dynamics default-x="6.5" default-y="-40" relative-y="-25">
            <p />
          </dynamics>
        </direction-type>
        <offset sound="yes">10080</offset>
        <staff>2</staff>
        <sound dynamics="44" />
      </direction>
      <note print-object="no" print-spacing="yes">
        <rest measure="yes" />
        <duration>30240</duration>
        <voice>6</voice>
        <staff>2</staff>
      </note>
      <backup>
        <duration>30240</duration>
      </backup>
      <note>
        <rest />
        <duration>10080</duration>
        <voice>9</voice>
        <type>quarter</type>
        <staff>2</staff>
      </note>
      <note default-x="204.94" default-y="-164.17">
        <pitch>
          <step>G</step>
          <octave>2</octave>
        </pitch>
        <duration>5040</duration>
        <voice>9</voice>
        <type>eighth</type>
        <stem>up</stem>
        <staff>2</staff>
      </note>
      <note>
        <rest />
        <duration>5040</duration>
        <voice>9</voice>
        <type>eighth</type>
        <staff>2</staff>
      </note>
      <note>
        <rest />
        <duration>10080</duration>
        <voice>9</voice>
        <type>quarter</type>
        <staff>2</staff>
      </note>
    </measure>
    <!--======================== Measure 236 =========================-->
    <measure number="236" width="318">
      <direction placement="above">
        <direction-type>
          <words default-y="25.81" enclosure="none" font-style="italic" relative-y="10">ad libitum</words>
        </direction-type>
        <staff>1</staff>
      </direction>
      <note default-x="13" default-y="-5">
        <pitch>
          <step>G</step>
          <octave>3</octave>
        </pitch>
        <duration>15120</duration>
        <tie type="stop" />
        <voice>1</voice>
        <type>quarter</type>
        <dot />
        <stem>down</stem>
        <staff>1</staff>
        <notations>
          <fermata type="upright" />
          <tied type="stop" />
          <slur number="6" placement="above" type="start" />
        </notations>
      </note>
      <note default-x="132.48" default-y="-15">
        <pitch>
          <step>E</step>
          <octave>3</octave>
        </pitch>
        <duration>5040</duration>
        <voice>1</voice>
        <type>eighth</type>
        <stem>down</stem>
        <staff>1</staff>
      </note>
      <direction placement="below">
        <direction-type>
          <words default-y="-93.32" enclosure="none" relative-y="-25">.. den</words>
        </direction-type>
        <staff>1</staff>
      </direction>
      <note default-x="193.72" default-y="-25">
        <pitch>
          <step>C</step>
          <alter>1</alter>
          <octave>3</octave>
        </pitch>
        <duration>5040</duration>
        <voice>1</voice>
        <type>eighth</type>
        <accidental>sharp</accidental>
        <stem>down</stem>
        <staff>1</staff>
        <beam number="1">begin</beam>
        <notations>
          <slur number="6" type="stop" />
        </notations>
      </note>
      <note default-x="254.96" default-y="-20">
        <pitch>
          <step>D</step>
          <octave>3</octave>
        </pitch>
        <duration>5040</duration>
        <voice>1</voice>
        <type>eighth</type>
        <stem>down</stem>
        <staff>1</staff>
        <beam number="1">end</beam>
        <lyric default-x="1.5" default-y="-48.29" name="1" number="1" relative-y="-30">
          <syllabic>single</syllabic>
          <text>..den</text>
        </lyric>
      </note>
      <backup>
        <duration>30240</duration>
      </backup>
      <note print-object="no" print-spacing="yes">
        <rest measure="yes" />
        <duration>30240</duration>
        <voice>6</voice>
        <staff>2</staff>
      </note>
      <backup>
        <duration>30240</duration>
      </backup>
      <note>
        <rest measure="yes" />
        <duration>30240</duration>
        <voice>9</voice>
        <staff>2</staff>
        <notations>
          <fermata type="upright" />
        </notations>
      </note>
    </measure>
    <!--======================== Measure 237 =========================-->
    <measure number="237" width="397.79">
      <direction placement="below">
        <direction-type>
          <words default-y="-93.32" enclosure="none" relative-y="-25">vol-le-re!</words>
        </direction-type>
        <staff>1</staff>
      </direction>
      <note default-x="20.91" default-y="-20">
        <pitch>
          <step>D</step>
          <octave>3</octave>
        </pitch>
        <duration>5040</duration>
        <voice>1</voice>
        <type>eighth</type>
        <stem>up</stem>
        <staff>1</staff>
        <beam number="1">begin</beam>
        <notations>
          <fermata type="upright" />
        </notations>
        <lyric default-x="6.5" default-y="-48.29" name="1" number="1" relative-y="-30">
          <syllabic>begin</syllabic>
          <text>vol</text>
        </lyric>
      </note>
      <direction placement="above">
        <direction-type>
          <words enclosure="none" font-size="12" font-weight="bold" relative-y="20">Presto</words>
        </direction-type>
        <staff>1</staff>
      </direction>
      <note default-x="85.38" default-y="-35">
        <pitch>
          <step>A</step>
          <octave>2</octave>
        </pitch>
        <duration>5040</duration>
        <voice>1</voice>
        <type>eighth</type>
        <stem>up</stem>
        <staff>1</staff>
        <beam number="1">end</beam>
        <lyric default-x="6.5" default-y="-48.29" name="1" number="1" relative-y="-30">
          <syllabic>middle</syllabic>
          <text>le</text>
        </lyric>
      </note>
      <note default-x="149.86" default-y="-35">
        <pitch>
          <step>A</step>
          <octave>2</octave>
        </pitch>
        <duration>10080</duration>
        <voice>1</voice>
        <type>quarter</type>
        <stem>up</stem>
        <staff>1</staff>
        <lyric default-x="8.89" default-y="-48.29" name="1" number="1" relative-y="-30">
          <syllabic>end</syllabic>
          <text>re!</text>
        </lyric>
      </note>
      <attributes>
        <clef>
          <sign>G</sign>
          <line>2</line>
        </clef>
      </attributes>
      <direction placement="below">
        <direction-type>
          <dynamics default-x="3.25" default-y="-44.01" relative-y="-25">
            <f />
          </dynamics>
        </direction-type>
        <staff>1</staff>
        <sound dynamics="88" />
      </direction>
      <note default-x="263.02" default-y="-15">
        <pitch>
          <step>C</step>
          <alter>1</alter>
          <octave>5</octave>
        </pitch>
        <duration>10080</duration>
        <voice>1</voice>
        <type>quarter</type>
        <stem>down</stem>
        <staff>1</staff>
        <notations>
          <fermata type="upright" />
          <articulations>
            <staccato />
          </articulations>
        </notations>
      </note>
      <note default-x="263.02" default-y="-5">
        <chord />
        <pitch>
          <step>E</step>
          <octave>5</octave>
        </pitch>
        <duration>10080</duration>
        <voice>1</voice>
        <type>quarter</type>
        <stem>down</stem>
        <staff>1</staff>
      </note>
      <note default-x="263.02" default-y="10">
        <chord />
        <pitch>
          <step>A</step>
          <octave>5</octave>
        </pitch>
        <duration>10080</duration>
        <voice>1</voice>
        <type>quarter</type>
        <stem>down</stem>
        <staff>1</staff>
      </note>
      <note default-x="263.02" default-y="20">
        <chord />
        <pitch>
          <step>C</step>
          <alter>1</alter>
          <octave>6</octave>
        </pitch>
        <duration>10080</duration>
        <voice>1</voice>
        <type>quarter</type>
        <stem>down</stem>
        <staff>1</staff>
      </note>
      <backup>
        <duration>30240</duration>
      </backup>
      <direction placement="below">
        <direction-type>
          <dynamics default-x="3.25" default-y="-70.02" relative-y="-25">
            <f />
          </dynamics>
        </direction-type>
        <offset sound="yes">20160</offset>
        <staff>2</staff>
        <sound dynamics="88" />
      </direction>
      <note print-object="no" print-spacing="yes">
        <rest measure="yes" />
        <duration>30240</duration>
        <voice>6</voice>
        <staff>2</staff>
      </note>
      <backup>
        <duration>30240</duration>
      </backup>
      <note>
        <rest />
        <duration>10080</duration>
        <voice>9</voice>
        <type>quarter</type>
        <staff>2</staff>
      </note>
      <note>
        <rest />
        <duration>10080</duration>
        <voice>9</voice>
        <type>quarter</type>
        <staff>2</staff>
      </note>
      <note default-x="263.02" default-y="-159.17">
        <pitch>
          <step>A</step>
          <octave>2</octave>
        </pitch>
        <duration>10080</duration>
        <voice>9</voice>
        <type>quarter</type>
        <stem>down</stem>
        <staff>2</staff>
        <notations>
          <arpeggiate />
          <articulations>
            <staccato />
          </articulations>
        </notations>
      </note>
      <note default-x="263.02" default-y="-139.17">
        <chord />
        <pitch>
          <step>E</step>
          <octave>3</octave>
        </pitch>
        <duration>10080</duration>
        <voice>9</voice>
        <type>quarter</type>
        <stem>down</stem>
        <staff>2</staff>
        <notations>
          <arpeggiate />
        </notations>
      </note>
      <note default-x="263.02" default-y="-124.17">
        <chord />
        <pitch>
          <step>A</step>
          <octave>3</octave>
        </pitch>
        <duration>10080</duration>
        <voice>9</voice>
        <type>quarter</type>
        <stem>down</stem>
        <staff>2</staff>
        <notations>
          <arpeggiate />
        </notations>
      </note>
      <note default-x="263.02" default-y="-114.17">
        <chord />
        <pitch>
          <step>C</step>
          <alter>1</alter>
          <octave>4</octave>
        </pitch>
        <duration>10080</duration>
        <voice>9</voice>
        <type>quarter</type>
        <stem>down</stem>
        <staff>2</staff>
        <notations>
          <arpeggiate />
        </notations>
      </note>
    </measure>
    <!--======================== Measure 238 =========================-->
    <measure number="238" width="230.89">
      <print new-system="yes">
        <system-layout>
          <system-margins>
            <left-margin>0</left-margin>
            <right-margin>0</right-margin>
          </system-margins>
          <system-distance>150</system-distance>
        </system-layout>
      </print>
      <attributes>
        <time symbol="common">
          <beats>4</beats>
          <beat-type>4</beat-type>
        </time>
      </attributes>
      <direction placement="below">
        <direction-type>
          <words default-y="-54.56" enclosure="none" font-style="italic" relative-y="-25">dolce</words>
        </direction-type>
        <staff>1</staff>
      </direction>
      <direction placement="above">
        <direction-type>
          <words default-y="33.35" enclosure="none" font-weight="bold" relative-y="10">Allegro assai</words>
        </direction-type>
        <staff>1</staff>
      </direction>
      <note default-x="115.6" default-y="-40">
        <pitch>
          <step>E</step>
          <octave>4</octave>
        </pitch>
        <duration>10080</duration>
        <voice>1</voice>
        <type>quarter</type>
        <stem>up</stem>
        <staff>1</staff>
        <notations>
          <fermata type="upright" />
          <slur number="1" placement="below" type="start" />
        </notations>
      </note>
      <note default-x="115.6" default-y="-15">
        <chord />
        <pitch>
          <step>C</step>
          <alter>1</alter>
          <octave>5</octave>
        </pitch>
        <duration>10080</duration>
        <voice>1</voice>
        <type>quarter</type>
        <stem>up</stem>
        <staff>1</staff>
      </note>
      <note default-x="143.97" default-y="-40">
        <pitch>
          <step>E</step>
          <octave>4</octave>
        </pitch>
        <duration>10080</duration>
        <voice>1</voice>
        <type>quarter</type>
        <stem>up</stem>
        <staff>1</staff>
      </note>
      <note default-x="143.97" default-y="-15">
        <chord />
        <pitch>
          <step>C</step>
          <alter>1</alter>
          <octave>5</octave>
        </pitch>
        <duration>10080</duration>
        <voice>1</voice>
        <type>quarter</type>
        <stem>up</stem>
        <staff>1</staff>
      </note>
      <note default-x="172.34" default-y="-35">
        <pitch>
          <step>F</step>
          <alter>1</alter>
          <octave>4</octave>
        </pitch>
        <duration>10080</duration>
        <voice>1</voice>
        <type>quarter</type>
        <stem>up</stem>
        <staff>1</staff>
      </note>
      <note default-x="172.34" default-y="-10">
        <chord />
        <pitch>
          <step>D</step>
          <octave>5</octave>
        </pitch>
        <duration>10080</duration>
        <voice>1</voice>
        <type>quarter</type>
        <stem>up</stem>
        <staff>1</staff>
      </note>
      <note default-x="200.72" default-y="-30">
        <pitch>
          <step>G</step>
          <octave>4</octave>
        </pitch>
        <duration>10080</duration>
        <voice>1</voice>
        <type>quarter</type>
        <stem>up</stem>
        <staff>1</staff>
        <notations>
          <slur number="1" type="stop" />
        </notations>
      </note>
      <note default-x="200.72" default-y="-5">
        <chord />
        <pitch>
          <step>E</step>
          <octave>5</octave>
        </pitch>
        <duration>10080</duration>
        <voice>1</voice>
        <type>quarter</type>
        <stem>up</stem>
        <staff>1</staff>
      </note>
      <backup>
        <duration>40320</duration>
      </backup>
      <attributes>
        <time symbol="common">
          <beats>4</beats>
          <beat-type>4</beat-type>
        </time>
        <clef number="2">
          <sign>F</sign>
          <line>4</line>
        </clef>
        <staff-details print-object="yes" />
      </attributes>
      <direction placement="above">
        <direction-type>
          <dynamics default-x="12.06" default-y="2.96" relative-y="15">
            <f />
          </dynamics>
        </direction-type>
        <staff>2</staff>
        <sound dynamics="88" />
      </direction>
      <note print-object="no" print-spacing="yes">
        <rest measure="yes" />
        <duration>40320</duration>
        <voice>6</voice>
        <staff>2</staff>
      </note>
      <backup>
        <duration>40320</duration>
      </backup>
      <note default-x="114.64" default-y="-191.98">
        <pitch>
          <step>A</step>
          <octave>2</octave>
        </pitch>
        <duration>40320</duration>
        <tie type="start" />
        <voice>9</voice>
        <type>whole</type>
        <staff>2</staff>
        <notations>
          <tied type="start" />
        </notations>
      </note>
      <note default-x="114.64" default-y="-156.98">
        <chord />
        <pitch>
          <step>A</step>
          <octave>3</octave>
        </pitch>
        <duration>40320</duration>
        <tie type="start" />
        <voice>9</voice>
        <type>whole</type>
        <staff>2</staff>
        <notations>
          <tied type="start" />
        </notations>
      </note>
    </measure>
    <!--======================== Measure 239 =========================-->
    <measure number="239" width="140.19">
      <direction placement="below">
        <direction-type>
          <dynamics default-x="6.5" default-y="-40" relative-y="-25">
            <p />
          </dynamics>
        </direction-type>
        <staff>1</staff>
        <sound dynamics="44" />
      </direction>
      <note default-x="16.5" default-y="-30">
        <pitch>
          <step>G</step>
          <octave>4</octave>
        </pitch>
        <duration>10080</duration>
        <voice>1</voice>
        <type>quarter</type>
        <stem>up</stem>
        <staff>1</staff>
        <notations>
          <slur number="2" placement="below" type="start" />
        </notations>
      </note>
      <note default-x="16.5" default-y="-5">
        <chord />
        <pitch>
          <step>E</step>
          <octave>5</octave>
        </pitch>
        <duration>10080</duration>
        <voice>1</voice>
        <type>quarter</type>
        <stem>up</stem>
        <staff>1</staff>
      </note>
      <note default-x="46.97" default-y="-35">
        <pitch>
          <step>F</step>
          <alter>1</alter>
          <octave>4</octave>
        </pitch>
        <duration>10080</duration>
        <voice>1</voice>
        <type>quarter</type>
        <stem>up</stem>
        <staff>1</staff>
      </note>
      <note default-x="46.97" default-y="-10">
        <chord />
        <pitch>
          <step>D</step>
          <octave>5</octave>
        </pitch>
        <duration>10080</duration>
        <voice>1</voice>
        <type>quarter</type>
        <stem>up</stem>
        <staff>1</staff>
      </note>
      <note default-x="77.44" default-y="-40">
        <pitch>
          <step>E</step>
          <octave>4</octave>
        </pitch>
        <duration>10080</duration>
        <voice>1</voice>
        <type>quarter</type>
        <stem>up</stem>
        <staff>1</staff>
      </note>
      <note default-x="77.44" default-y="-15">
        <chord />
        <pitch>
          <step>C</step>
          <alter>1</alter>
          <octave>5</octave>
        </pitch>
        <duration>10080</duration>
        <voice>1</voice>
        <type>quarter</type>
        <stem>up</stem>
        <staff>1</staff>
      </note>
      <note default-x="107.92" default-y="-45">
        <pitch>
          <step>D</step>
          <octave>4</octave>
        </pitch>
        <duration>10080</duration>
        <voice>1</voice>
        <type>quarter</type>
        <stem>up</stem>
        <staff>1</staff>
        <notations>
          <slur number="2" type="stop" />
        </notations>
      </note>
      <note default-x="107.92" default-y="-20">
        <chord />
        <pitch>
          <step>B</step>
          <octave>4</octave>
        </pitch>
        <duration>10080</duration>
        <voice>1</voice>
        <type>quarter</type>
        <stem>up</stem>
        <staff>1</staff>
      </note>
      <backup>
        <duration>40320</duration>
      </backup>
      <direction placement="below">
        <direction-type>
          <dynamics default-x="12.06" default-y="-40" relative-y="-25">
            <f />
          </dynamics>
        </direction-type>
        <offset sound="yes">20160</offset>
        <staff>2</staff>
        <sound dynamics="88" />
      </direction>
      <note default-x="16.5" default-y="-136.98">
        <pitch>
          <step>E</step>
          <octave>4</octave>
        </pitch>
        <duration>10080</duration>
        <voice>6</voice>
        <type>quarter</type>
        <stem>up</stem>
        <staff>2</staff>
      </note>
      <note default-x="46.97" default-y="-141.98">
        <pitch>
          <step>D</step>
          <octave>4</octave>
        </pitch>
        <duration>10080</duration>
        <voice>6</voice>
        <type>quarter</type>
        <stem>up</stem>
        <staff>2</staff>
      </note>
      <note print-object="no" print-spacing="yes">
        <rest />
        <duration>20160</duration>
        <voice>6</voice>
        <type>half</type>
        <staff>2</staff>
      </note>
      <backup>
        <duration>40320</duration>
      </backup>
      <note default-x="16.5" default-y="-191.98">
        <pitch>
          <step>A</step>
          <octave>2</octave>
        </pitch>
        <duration>20160</duration>
        <tie type="stop" />
        <voice>9</voice>
        <type>half</type>
        <stem>down</stem>
        <staff>2</staff>
        <notations>
          <tied type="stop" />
        </notations>
      </note>
      <note default-x="16.5" default-y="-156.98">
        <chord />
        <pitch>
          <step>A</step>
          <octave>3</octave>
        </pitch>
        <duration>20160</duration>
        <tie type="stop" />
        <voice>9</voice>
        <type>half</type>
        <stem>down</stem>
        <staff>2</staff>
        <notations>
          <tied type="stop" />
        </notations>
      </note>
      <note default-x="77.44" default-y="-191.98">
        <pitch>
          <step>A</step>
          <octave>2</octave>
        </pitch>
        <duration>10080</duration>
        <voice>9</voice>
        <type>quarter</type>
        <stem>down</stem>
        <staff>2</staff>
        <notations>
          <articulations>
            <staccato />
          </articulations>
        </notations>
      </note>
      <note default-x="77.44" default-y="-156.98">
        <chord />
        <pitch>
          <step>A</step>
          <octave>3</octave>
        </pitch>
        <duration>10080</duration>
        <voice>9</voice>
        <type>quarter</type>
        <stem>down</stem>
        <staff>2</staff>
      </note>
      <note default-x="107.92" default-y="-191.98">
        <pitch>
          <step>A</step>
          <octave>2</octave>
        </pitch>
        <duration>10080</duration>
        <voice>9</voice>
        <type>quarter</type>
        <stem>down</stem>
        <staff>2</staff>
        <notations>
          <articulations>
            <staccato />
          </articulations>
        </notations>
      </note>
      <note default-x="107.92" default-y="-156.98">
        <chord />
        <pitch>
          <step>A</step>
          <octave>3</octave>
        </pitch>
        <duration>10080</duration>
        <voice>9</voice>
        <type>quarter</type>
        <stem>down</stem>
        <staff>2</staff>
      </note>
    </measure>
    <!--======================== Measure 240 =========================-->
    <measure number="240" width="157.18">
      <direction placement="below">
        <direction-type>
          <dynamics default-x="6.5" default-y="-40" relative-y="-25">
            <p />
          </dynamics>
        </direction-type>
        <staff>1</staff>
        <sound dynamics="44" />
      </direction>
      <note default-x="15.54" default-y="-40">
        <pitch>
          <step>E</step>
          <octave>4</octave>
        </pitch>
        <duration>10080</duration>
        <voice>1</voice>
        <type>quarter</type>
        <stem>up</stem>
        <staff>1</staff>
        <notations>
          <slur number="3" placement="above" type="start" />
        </notations>
      </note>
      <note default-x="15.54" default-y="-15">
        <chord />
        <pitch>
          <step>C</step>
          <alter>1</alter>
          <octave>5</octave>
        </pitch>
        <duration>10080</duration>
        <voice>1</voice>
        <type>quarter</type>
        <stem>up</stem>
        <staff>1</staff>
      </note>
      <note default-x="15.54" default-y="-5">
        <chord />
        <pitch>
          <step>E</step>
          <octave>5</octave>
        </pitch>
        <duration>10080</duration>
        <voice>1</voice>
        <type>quarter</type>
        <stem>up</stem>
        <staff>1</staff>
      </note>
      <note default-x="50.5" default-y="-40">
        <pitch>
          <step>E</step>
          <octave>4</octave>
        </pitch>
        <duration>10080</duration>
        <voice>1</voice>
        <type>quarter</type>
        <stem>up</stem>
        <staff>1</staff>
      </note>
      <note default-x="50.5" default-y="-15">
        <chord />
        <pitch>
          <step>C</step>
          <alter>1</alter>
          <octave>5</octave>
        </pitch>
        <duration>10080</duration>
        <voice>1</voice>
        <type>quarter</type>
        <stem>up</stem>
        <staff>1</staff>
      </note>
      <note default-x="50.5" default-y="-5">
        <chord />
        <pitch>
          <step>E</step>
          <octave>5</octave>
        </pitch>
        <duration>10080</duration>
        <voice>1</voice>
        <type>quarter</type>
        <stem>up</stem>
        <staff>1</staff>
      </note>
      <note default-x="85.46" default-y="-35">
        <pitch>
          <step>F</step>
          <alter>1</alter>
          <octave>4</octave>
        </pitch>
        <duration>10080</duration>
        <voice>1</voice>
        <type>quarter</type>
        <stem>down</stem>
        <staff>1</staff>
      </note>
      <note default-x="85.46" default-y="-10">
        <chord />
        <pitch>
          <step>D</step>
          <octave>5</octave>
        </pitch>
        <duration>10080</duration>
        <voice>1</voice>
        <type>quarter</type>
        <stem>down</stem>
        <staff>1</staff>
      </note>
      <note default-x="85.46" default-y="0">
        <chord />
        <pitch>
          <step>F</step>
          <alter>1</alter>
          <octave>5</octave>
        </pitch>
        <duration>10080</duration>
        <voice>1</voice>
        <type>quarter</type>
        <stem>down</stem>
        <staff>1</staff>
      </note>
      <note default-x="120.42" default-y="-30">
        <pitch>
          <step>G</step>
          <octave>4</octave>
        </pitch>
        <duration>10080</duration>
        <voice>1</voice>
        <type>quarter</type>
        <stem>down</stem>
        <staff>1</staff>
        <notations>
          <slur number="3" type="stop" />
        </notations>
      </note>
      <note default-x="120.42" default-y="-5">
        <chord />
        <pitch>
          <step>E</step>
          <octave>5</octave>
        </pitch>
        <duration>10080</duration>
        <voice>1</voice>
        <type>quarter</type>
        <stem>down</stem>
        <staff>1</staff>
      </note>
      <note default-x="120.42" default-y="5">
        <chord />
        <pitch>
          <step>G</step>
          <octave>5</octave>
        </pitch>
        <duration>10080</duration>
        <voice>1</voice>
        <type>quarter</type>
        <stem>down</stem>
        <staff>1</staff>
      </note>
      <backup>
        <duration>40320</duration>
      </backup>
      <note default-x="14.58" default-y="-156.98">
        <pitch>
          <step>A</step>
          <octave>3</octave>
        </pitch>
        <duration>40320</duration>
        <voice>6</voice>
        <type>whole</type>
        <staff>2</staff>
      </note>
      <backup>
        <duration>40320</duration>
      </backup>
      <note default-x="16.5" default-y="-146.98">
        <pitch>
          <step>C</step>
          <alter>1</alter>
          <octave>4</octave>
        </pitch>
        <duration>10080</duration>
        <voice>9</voice>
        <type>quarter</type>
        <stem>up</stem>
        <staff>2</staff>
      </note>
      <note default-x="50.5" default-y="-146.98">
        <pitch>
          <step>C</step>
          <alter>1</alter>
          <octave>4</octave>
        </pitch>
        <duration>10080</duration>
        <voice>9</voice>
        <type>quarter</type>
        <stem>up</stem>
        <staff>2</staff>
      </note>
      <note default-x="85.46" default-y="-141.98">
        <pitch>
          <step>D</step>
          <octave>4</octave>
        </pitch>
        <duration>10080</duration>
        <voice>9</voice>
        <type>quarter</type>
        <stem>up</stem>
        <staff>2</staff>
      </note>
      <note default-x="120.42" default-y="-136.98">
        <pitch>
          <step>E</step>
          <octave>4</octave>
        </pitch>
        <duration>10080</duration>
        <voice>9</voice>
        <type>quarter</type>
        <stem>up</stem>
        <staff>2</staff>
      </note>
    </measure>
  </part>
</score-partwise>