<?xml version="1.0" encoding="utf-8"?>
<!DOCTYPE score-partwise  PUBLIC "-//Recordare//DTD MusicXML 3.1 Partwise//EN" "http://www.musicxml.org/dtds/partwise.dtd">
<score-partwise version="3.1">
  <work>
    <work-title>Symphony No.40 in Gm, K550</work-title>
  </work>
  <movement-title>2.mxl</movement-title>
  <identification>
    <creator type="composer">W.A.Mozart</creator>
    <rights>Symphony No.40 in Gm, K550</rights>
    <encoding>
      <encoding-date>2026-03-11</encoding-date>
      <software>music21 v.8.3.0</software>
      <software>MuseScore 2.0.2</software>
      <supports attribute="new-system" element="print" type="yes" value="yes" />
      <supports attribute="new-page" element="print" type="yes" value="yes" />
    </encoding>
  </identification>
  <defaults>
    <scaling>
      <millimeters>7</millimeters>
      <tenths>40</tenths>
    </scaling>
  </defaults>
  <part-list>
    <score-part id="P1">
      <part-name>ピアノ</part-name>
      <part-abbreviation>Pno.</part-abbreviation>
      <score-instrument id="Id1b0771dab92b81bc9a7de78fe816e11">
        <instrument-name>ピアノ</instrument-name>
      </score-instrument>
    </score-part>
  </part-list>
  <!--=========================== Part 1 ===========================-->
  <part id="P1">
    <!--========================= Measure 49 =========================-->
    <measure number="49" width="158.56">
      <attributes>
        <divisions>10080</divisions>
        <key>
          <fifths>-2</fifths>
        </key>
        <time symbol="cut">
          <beats>2</beats>
          <beat-type>2</beat-type>
        </time>
        <staves>2</staves>
        <clef number="1">
          <sign>G</sign>
          <line>2</line>
        </clef>
        <clef number="2">
          <sign>G</sign>
          <line>2</line>
        </clef>
      </attributes>
      <note default-x="19.34" default-y="-20">
        <pitch>
          <step>B</step>
          <alter>0</alter>
          <octave>4</octave>
        </pitch>
        <duration>10080</duration>
        <voice>1</voice>
        <type>quarter</type>
        <accidental>natural</accidental>
        <stem>down</stem>
        <staff>1</staff>
      </note>
      <note default-x="19.34" default-y="0">
        <chord />
        <pitch>
          <step>F</step>
          <alter>0</alter>
          <octave>5</octave>
        </pitch>
        <duration>10080</duration>
        <voice>1</voice>
        <type>quarter</type>
        <accidental>natural</accidental>
        <stem>down</stem>
        <staff>1</staff>
      </note>
      <note default-x="53.75" default-y="-30">
        <pitch>
          <step>G</step>
          <octave>4</octave>
        </pitch>
        <duration>10080</duration>
        <voice>1</voice>
        <type>quarter</type>
        <stem>down</stem>
        <staff>1</staff>
      </note>
      <note default-x="53.75" default-y="-5">
        <chord />
        <pitch>
          <step>E</step>
          <alter>0</alter>
          <octave>5</octave>
        </pitch>
        <duration>10080</duration>
        <voice>1</voice>
        <type>quarter</type>
        <accidental>natural</accidental>
        <stem>down</stem>
        <staff>1</staff>
      </note>
      <note default-x="88.15" default-y="-25">
        <pitch>
          <step>A</step>
          <octave>4</octave>
        </pitch>
        <duration>10080</duration>
        <voice>1</voice>
        <type>quarter</type>
        <stem>down</stem>
        <staff>1</staff>
      </note>
      <note default-x="88.15" default-y="-5">
        <chord />
        <pitch>
          <step>E</step>
          <alter>-1</alter>
          <octave>5</octave>
        </pitch>
        <duration>10080</duration>
        <voice>1</voice>
        <type>quarter</type>
        <accidental>flat</accidental>
        <stem>down</stem>
        <staff>1</staff>
      </note>
      <note default-x="122.56" default-y="-35">
        <pitch>
          <step>F</step>
          <octave>4</octave>
        </pitch>
        <duration>10080</duration>
        <voice>1</voice>
        <type>quarter</type>
        <stem>up</stem>
        <staff>1</staff>
      </note>
      <note default-x="122.56" default-y="-10">
        <chord />
        <pitch>
          <step>D</step>
          <octave>5</octave>
        </pitch>
        <duration>10080</duration>
        <voice>1</voice>
        <type>quarter</type>
        <stem>up</stem>
        <staff>1</staff>
      </note>
      <backup>
        <duration>40320</duration>
      </backup>
      <note default-x="19.34" default-y="-100" dynamics="83.33">
        <pitch>
          <step>G</step>
          <octave>3</octave>
        </pitch>
        <duration>10080</duration>
        <voice>2</voice>
        <type>quarter</type>
        <stem>down</stem>
        <staff>2</staff>
      </note>
      <note default-x="53.75" default-y="-120" dynamics="83.33">
        <pitch>
          <step>C</step>
          <octave>3</octave>
        </pitch>
        <duration>10080</duration>
        <voice>2</voice>
        <type>quarter</type>
        <stem>up</stem>
        <staff>2</staff>
      </note>
      <note default-x="88.15" default-y="-105" dynamics="83.33">
        <pitch>
          <step>F</step>
          <octave>3</octave>
        </pitch>
        <duration>10080</duration>
        <voice>2</voice>
        <type>quarter</type>
        <stem>down</stem>
        <staff>2</staff>
      </note>
      <note default-x="122.56" default-y="-125" dynamics="83.33">
        <pitch>
          <step>B</step>
          <alter>-1</alter>
          <octave>2</octave>
        </pitch>
        <duration>10080</duration>
        <voice>2</voice>
        <type>quarter</type>
        <stem>up</stem>
        <staff>2</staff>
      </note>
    </measure>
    <!--========================= Measure 50 =========================-->
    <measure number="50" width="132.38">
      <note default-x="12" default-y="-30">
        <pitch>
          <step>G</step>
          <octave>4</octave>
        </pitch>
        <duration>10080</duration>
        <voice>1</voice>
        <type>quarter</type>
        <stem>up</stem>
        <staff>1</staff>
      </note>
      <note default-x="12" default-y="-15">
        <chord />
        <pitch>
          <step>C</step>
          <octave>5</octave>
        </pitch>
        <duration>10080</duration>
        <voice>1</voice>
        <type>quarter</type>
        <stem>up</stem>
        <staff>1</staff>
      </note>
      <note default-x="41.34" default-y="-35">
        <pitch>
          <step>F</step>
          <octave>4</octave>
        </pitch>
        <duration>20160</duration>
        <voice>1</voice>
        <type>half</type>
        <stem>down</stem>
        <staff>1</staff>
      </note>
      <note default-x="41.34" default-y="-5">
        <chord />
        <pitch>
          <step>E</step>
          <alter>-1</alter>
          <octave>5</octave>
        </pitch>
        <duration>20160</duration>
        <voice>1</voice>
        <type>half</type>
        <stem>down</stem>
        <staff>1</staff>
      </note>
      <note default-x="101.08" default-y="-40">
        <pitch>
          <step>E</step>
          <alter>-1</alter>
          <octave>4</octave>
        </pitch>
        <duration>10080</duration>
        <voice>1</voice>
        <type>quarter</type>
        <stem>up</stem>
        <staff>1</staff>
      </note>
      <note default-x="101.08" default-y="-25">
        <chord />
        <pitch>
          <step>A</step>
          <octave>4</octave>
        </pitch>
        <duration>10080</duration>
        <voice>1</voice>
        <type>quarter</type>
        <stem>up</stem>
        <staff>1</staff>
      </note>
      <backup>
        <duration>40320</duration>
      </backup>
      <note default-x="12" default-y="-110" dynamics="83.33">
        <pitch>
          <step>E</step>
          <alter>-1</alter>
          <octave>3</octave>
        </pitch>
        <duration>10080</duration>
        <voice>2</voice>
        <type>quarter</type>
        <stem>down</stem>
        <staff>2</staff>
      </note>
      <note>
        <rest />
        <duration>10080</duration>
        <voice>2</voice>
        <type>quarter</type>
        <staff>2</staff>
      </note>
      <note default-x="71.39" default-y="-105" dynamics="83.33">
        <pitch>
          <step>F</step>
          <octave>3</octave>
        </pitch>
        <duration>10080</duration>
        <voice>2</voice>
        <type>quarter</type>
        <stem>down</stem>
        <staff>2</staff>
      </note>
      <note>
        <rest />
        <duration>10080</duration>
        <voice>2</voice>
        <type>quarter</type>
        <staff>2</staff>
      </note>
    </measure>
    <!--========================= Measure 51 =========================-->
    <measure number="51" width="260.46">
      <print new-page="yes">
        <system-layout>
          <system-margins>
            <left-margin>21</left-margin>
            <right-margin>0</right-margin>
          </system-margins>
          <top-system-distance>70</top-system-distance>
        </system-layout>
      </print>
      <note default-x="76.03" default-y="-45">
        <pitch>
          <step>D</step>
          <octave>4</octave>
        </pitch>
        <duration>10080</duration>
        <voice>1</voice>
        <type>quarter</type>
        <stem>up</stem>
        <staff>1</staff>
      </note>
      <note default-x="76.03" default-y="-20">
        <chord />
        <pitch>
          <step>B</step>
          <alter>-1</alter>
          <octave>4</octave>
        </pitch>
        <duration>10080</duration>
        <voice>1</voice>
        <type>quarter</type>
        <stem>up</stem>
        <staff>1</staff>
      </note>
      <note>
        <rest />
        <duration>10080</duration>
        <voice>1</voice>
        <type>quarter</type>
        <staff>1</staff>
      </note>
      <note default-x="167.27" default-y="-45" dynamics="83.33">
        <pitch>
          <step>D</step>
          <octave>4</octave>
        </pitch>
        <duration>5040</duration>
        <voice>1</voice>
        <type>eighth</type>
        <stem>up</stem>
        <staff>1</staff>
        <beam number="1">begin</beam>
      </note>
      <note default-x="190.08" default-y="-50" dynamics="83.33">
        <pitch>
          <step>C</step>
          <octave>4</octave>
        </pitch>
        <duration>5040</duration>
        <voice>1</voice>
        <type>eighth</type>
        <stem>up</stem>
        <staff>1</staff>
        <beam number="1">continue</beam>
      </note>
      <note default-x="212.89" default-y="-40" dynamics="83.33">
        <pitch>
          <step>E</step>
          <alter>-1</alter>
          <octave>4</octave>
        </pitch>
        <duration>5040</duration>
        <voice>1</voice>
        <type>eighth</type>
        <stem>up</stem>
        <staff>1</staff>
        <beam number="1">continue</beam>
      </note>
      <note default-x="235.71" default-y="-45" dynamics="83.33">
        <pitch>
          <step>D</step>
          <octave>4</octave>
        </pitch>
        <duration>5040</duration>
        <voice>1</voice>
        <type>eighth</type>
        <stem>up</stem>
        <staff>1</staff>
        <beam number="1">end</beam>
      </note>
      <backup>
        <duration>40320</duration>
      </backup>
      <attributes>
        <staff-details print-object="yes" />
      </attributes>
      <note default-x="76.03" default-y="-90" dynamics="83.33">
        <pitch>
          <step>B</step>
          <alter>-1</alter>
          <octave>3</octave>
        </pitch>
        <duration>5040</duration>
        <voice>2</voice>
        <type>eighth</type>
        <stem>down</stem>
        <staff>2</staff>
        <beam number="1">begin</beam>
      </note>
      <note default-x="98.84" default-y="-95" dynamics="83.33">
        <pitch>
          <step>A</step>
          <octave>3</octave>
        </pitch>
        <duration>5040</duration>
        <voice>2</voice>
        <type>eighth</type>
        <stem>down</stem>
        <staff>2</staff>
        <beam number="1">continue</beam>
      </note>
      <note default-x="121.65" default-y="-85" dynamics="83.33">
        <pitch>
          <step>C</step>
          <octave>4</octave>
        </pitch>
        <duration>5040</duration>
        <voice>2</voice>
        <type>eighth</type>
        <stem>down</stem>
        <staff>2</staff>
        <beam number="1">continue</beam>
      </note>
      <note default-x="144.46" default-y="-90" dynamics="83.33">
        <pitch>
          <step>B</step>
          <alter>-1</alter>
          <octave>3</octave>
        </pitch>
        <duration>5040</duration>
        <voice>2</voice>
        <type>eighth</type>
        <stem>down</stem>
        <staff>2</staff>
        <beam number="1">end</beam>
      </note>
      <note>
        <rest />
        <duration>20160</duration>
        <voice>2</voice>
        <type>half</type>
        <staff>2</staff>
      </note>
    </measure>
    <!--========================= Measure 52 =========================-->
    <measure number="52" width="161.23">
      <attributes>
        <clef>
          <sign>F</sign>
          <line>4</line>
        </clef>
      </attributes>
      <note default-x="45.05" default-y="5">
        <pitch>
          <step>B</step>
          <alter>-1</alter>
          <octave>3</octave>
        </pitch>
        <duration>30240</duration>
        <voice>1</voice>
        <type>half</type>
        <dot />
        <stem>down</stem>
        <staff>1</staff>
      </note>
      <note default-x="45.05" default-y="25">
        <chord />
        <pitch>
          <step>F</step>
          <octave>4</octave>
        </pitch>
        <duration>30240</duration>
        <voice>1</voice>
        <type>half</type>
        <dot />
        <stem>down</stem>
        <staff>1</staff>
      </note>
      <note default-x="120.92" default-y="5">
        <pitch>
          <step>B</step>
          <alter>-1</alter>
          <octave>3</octave>
        </pitch>
        <duration>10080</duration>
        <voice>1</voice>
        <type>quarter</type>
        <stem>down</stem>
        <staff>1</staff>
      </note>
      <note default-x="120.92" default-y="20">
        <chord />
        <pitch>
          <step>E</step>
          <alter>0</alter>
          <octave>4</octave>
        </pitch>
        <duration>10080</duration>
        <voice>1</voice>
        <type>quarter</type>
        <accidental>natural</accidental>
        <stem>down</stem>
        <staff>1</staff>
      </note>
      <backup>
        <duration>40320</duration>
      </backup>
      <note default-x="45.05" default-y="-115" dynamics="83.33">
        <pitch>
          <step>D</step>
          <octave>3</octave>
        </pitch>
        <duration>30240</duration>
        <voice>2</voice>
        <type>half</type>
        <dot />
        <stem>down</stem>
        <staff>2</staff>
      </note>
      <note default-x="120.92" default-y="-120" dynamics="83.33">
        <pitch>
          <step>C</step>
          <octave>3</octave>
        </pitch>
        <duration>10080</duration>
        <voice>2</voice>
        <type>quarter</type>
        <stem>up</stem>
        <staff>2</staff>
      </note>
    </measure>
    <!--========================= Measure 53 =========================-->
    <measure number="53" width="170.69">
      <note default-x="18.2" default-y="0">
        <pitch>
          <step>A</step>
          <octave>3</octave>
        </pitch>
        <duration>30240</duration>
        <voice>1</voice>
        <type>half</type>
        <dot />
        <stem>down</stem>
        <staff>1</staff>
      </note>
      <note default-x="18.2" default-y="20">
        <chord />
        <pitch>
          <step>E</step>
          <alter>-1</alter>
          <octave>4</octave>
        </pitch>
        <duration>30240</duration>
        <voice>1</voice>
        <type>half</type>
        <dot />
        <accidental>flat</accidental>
        <stem>down</stem>
        <staff>1</staff>
      </note>
      <note>
        <rest />
        <duration>10080</duration>
        <voice>1</voice>
        <type>quarter</type>
        <staff>1</staff>
      </note>
      <backup>
        <duration>40320</duration>
      </backup>
      <note default-x="18.2" default-y="-140">
        <pitch>
          <step>F</step>
          <octave>2</octave>
        </pitch>
        <duration>30240</duration>
        <voice>2</voice>
        <type>half</type>
        <dot />
        <stem>up</stem>
        <staff>2</staff>
      </note>
      <note default-x="18.2" default-y="-110">
        <chord />
        <pitch>
          <step>E</step>
          <alter>-1</alter>
          <octave>3</octave>
        </pitch>
        <duration>30240</duration>
        <voice>2</voice>
        <type>half</type>
        <dot />
        <stem>up</stem>
        <staff>2</staff>
      </note>
      <note default-x="83.81" default-y="-105" dynamics="100.00">
        <pitch>
          <step>F</step>
          <octave>3</octave>
        </pitch>
        <duration>2520</duration>
        <voice>2</voice>
        <type>16th</type>
        <stem>down</stem>
        <staff>2</staff>
        <beam number="1">begin</beam>
        <beam number="2">begin</beam>
      </note>
      <note default-x="104.52" default-y="-110" dynamics="100.00">
        <pitch>
          <step>E</step>
          <alter>-1</alter>
          <octave>3</octave>
        </pitch>
        <duration>2520</duration>
        <voice>2</voice>
        <type>16th</type>
        <stem>down</stem>
        <staff>2</staff>
        <beam number="1">continue</beam>
        <beam number="2">continue</beam>
      </note>
      <note default-x="125.23" default-y="-115" dynamics="100.00">
        <pitch>
          <step>D</step>
          <octave>3</octave>
        </pitch>
        <duration>2520</duration>
        <voice>2</voice>
        <type>16th</type>
        <stem>down</stem>
        <staff>2</staff>
        <beam number="1">continue</beam>
        <beam number="2">continue</beam>
      </note>
      <note default-x="145.94" default-y="-120" dynamics="100.00">
        <pitch>
          <step>C</step>
          <octave>3</octave>
        </pitch>
        <duration>2520</duration>
        <voice>2</voice>
        <type>16th</type>
        <stem>down</stem>
        <staff>2</staff>
        <beam number="1">end</beam>
        <beam number="2">end</beam>
      </note>
    </measure>
    <!--========================= Measure 54 =========================-->
    <measure number="54" width="155.67">
      <note>
        <rest />
        <duration>10080</duration>
        <voice>1</voice>
        <type>quarter</type>
        <staff>1</staff>
      </note>
      <note default-x="48.22" default-y="5" dynamics="100.00">
        <pitch>
          <step>B</step>
          <alter>-1</alter>
          <octave>3</octave>
        </pitch>
        <duration>10080</duration>
        <voice>1</voice>
        <type>quarter</type>
        <stem>down</stem>
        <staff>1</staff>
        <notations>
          <articulations>
            <staccato />
          </articulations>
        </notations>
      </note>
      <note default-x="83.5" default-y="5" dynamics="100.00">
        <pitch>
          <step>B</step>
          <alter>-1</alter>
          <octave>3</octave>
        </pitch>
        <duration>10080</duration>
        <voice>1</voice>
        <type>quarter</type>
        <stem>down</stem>
        <staff>1</staff>
      </note>
      <note default-x="106.94" default-y="5">
        <pitch>
          <step>B</step>
          <alter>-1</alter>
          <octave>3</octave>
        </pitch>
        <duration>10080</duration>
        <voice>1</voice>
        <type>quarter</type>
        <stem>down</stem>
        <staff>1</staff>
      </note>
      <note default-x="118.79" default-y="10">
        <chord />
        <pitch>
          <step>C</step>
          <octave>4</octave>
        </pitch>
        <duration>10080</duration>
        <voice>1</voice>
        <type>quarter</type>
        <stem>down</stem>
        <staff>1</staff>
      </note>
      <backup>
        <duration>40320</duration>
      </backup>
      <note default-x="12.94" default-y="-125" dynamics="100.00">
        <pitch>
          <step>B</step>
          <alter>-1</alter>
          <octave>2</octave>
        </pitch>
        <duration>10080</duration>
        <voice>2</voice>
        <type>quarter</type>
        <stem>up</stem>
        <staff>2</staff>
      </note>
      <note default-x="48.22" default-y="-135">
        <pitch>
          <step>G</step>
          <octave>2</octave>
        </pitch>
        <duration>10080</duration>
        <voice>2</voice>
        <type>quarter</type>
        <stem>up</stem>
        <staff>2</staff>
        <notations>
          <articulations>
            <staccato />
          </articulations>
        </notations>
      </note>
      <note default-x="48.22" default-y="-115">
        <chord />
        <pitch>
          <step>D</step>
          <octave>3</octave>
        </pitch>
        <duration>10080</duration>
        <voice>2</voice>
        <type>quarter</type>
        <stem>up</stem>
        <staff>2</staff>
      </note>
      <note default-x="83.5" default-y="-135">
        <pitch>
          <step>G</step>
          <octave>2</octave>
        </pitch>
        <duration>10080</duration>
        <voice>2</voice>
        <type>quarter</type>
        <stem>up</stem>
        <staff>2</staff>
      </note>
      <note default-x="83.5" default-y="-115">
        <chord />
        <pitch>
          <step>D</step>
          <octave>3</octave>
        </pitch>
        <duration>10080</duration>
        <voice>2</voice>
        <type>quarter</type>
        <stem>up</stem>
        <staff>2</staff>
      </note>
      <note default-x="118.79" default-y="-135">
        <pitch>
          <step>G</step>
          <octave>2</octave>
        </pitch>
        <duration>10080</duration>
        <voice>2</voice>
        <type>quarter</type>
        <stem>up</stem>
        <staff>2</staff>
      </note>
      <note default-x="118.79" default-y="-110">
        <chord />
        <pitch>
          <step>E</step>
          <alter>0</alter>
          <octave>3</octave>
        </pitch>
        <duration>10080</duration>
        <voice>2</voice>
        <type>quarter</type>
        <accidental>natural</accidental>
        <stem>up</stem>
        <staff>2</staff>
      </note>
    </measure>
    <!--========================= Measure 55 =========================-->
    <measure number="55" width="176.87">
      <note default-x="12.35" default-y="15" dynamics="100.00">
        <pitch>
          <step>D</step>
          <octave>4</octave>
        </pitch>
        <duration>15120</duration>
        <voice>1</voice>
        <type>quarter</type>
        <dot />
        <stem>up</stem>
        <staff>1</staff>
      </note>
      <note default-x="61.46" default-y="20" dynamics="100.00">
        <pitch>
          <step>E</step>
          <alter>-1</alter>
          <octave>4</octave>
        </pitch>
        <duration>5040</duration>
        <voice>1</voice>
        <type>eighth</type>
        <stem>up</stem>
        <staff>1</staff>
      </note>
      <note default-x="94.72" default-y="10" dynamics="100.00">
        <pitch>
          <step>C</step>
          <octave>4</octave>
        </pitch>
        <duration>10080</duration>
        <voice>1</voice>
        <type>quarter</type>
        <stem>up</stem>
        <staff>1</staff>
      </note>
      <note>
        <rest />
        <duration>10080</duration>
        <voice>1</voice>
        <type>quarter</type>
        <staff>1</staff>
      </note>
      <backup>
        <duration>40320</duration>
      </backup>
      <note default-x="12" default-y="5" dynamics="83.33">
        <pitch>
          <step>B</step>
          <alter>-1</alter>
          <octave>3</octave>
        </pitch>
        <duration>20160</duration>
        <voice>2</voice>
        <type>half</type>
        <stem>down</stem>
        <staff>1</staff>
      </note>
      <note default-x="94.72" default-y="-10" dynamics="83.33">
        <pitch>
          <step>F</step>
          <octave>3</octave>
        </pitch>
        <duration>10080</duration>
        <voice>2</voice>
        <type>quarter</type>
        <stem>down</stem>
        <staff>1</staff>
      </note>
      <note>
        <rest />
        <duration>10080</duration>
        <voice>2</voice>
        <type>quarter</type>
        <staff>1</staff>
      </note>
      <backup>
        <duration>40320</duration>
      </backup>
      <note default-x="12.35" default-y="-140">
        <pitch>
          <step>F</step>
          <octave>2</octave>
        </pitch>
        <duration>15120</duration>
        <voice>3</voice>
        <type>quarter</type>
        <dot />
        <stem>up</stem>
        <staff>2</staff>
      </note>
      <note default-x="12.35" default-y="-115">
        <chord />
        <pitch>
          <step>D</step>
          <octave>3</octave>
        </pitch>
        <duration>15120</duration>
        <voice>3</voice>
        <type>quarter</type>
        <dot />
        <stem>up</stem>
        <staff>2</staff>
      </note>
      <note default-x="61.46" default-y="-135">
        <pitch>
          <step>G</step>
          <octave>2</octave>
        </pitch>
        <duration>5040</duration>
        <voice>3</voice>
        <type>eighth</type>
        <stem>up</stem>
        <staff>2</staff>
      </note>
      <note default-x="61.46" default-y="-125">
        <chord />
        <pitch>
          <step>B</step>
          <alter>-1</alter>
          <octave>2</octave>
        </pitch>
        <duration>5040</duration>
        <voice>3</voice>
        <type>eighth</type>
        <stem>up</stem>
        <staff>2</staff>
      </note>
      <note default-x="94.72" default-y="-130" dynamics="83.33">
        <pitch>
          <step>A</step>
          <octave>2</octave>
        </pitch>
        <duration>10080</duration>
        <voice>3</voice>
        <type>quarter</type>
        <stem>up</stem>
        <staff>2</staff>
      </note>
      <note>
        <rest />
        <duration>10080</duration>
        <voice>3</voice>
        <type>quarter</type>
        <staff>2</staff>
      </note>
    </measure>
    <!--========================= Measure 56 =========================-->
    <measure number="56" width="140.14">
      <note default-x="12" default-y="-5">
        <pitch>
          <step>G</step>
          <octave>3</octave>
        </pitch>
        <duration>30240</duration>
        <voice>1</voice>
        <type>half</type>
        <dot />
        <stem>down</stem>
        <staff>1</staff>
      </note>
      <note default-x="12" default-y="10">
        <chord />
        <pitch>
          <step>C</step>
          <octave>4</octave>
        </pitch>
        <duration>30240</duration>
        <voice>1</voice>
        <type>half</type>
        <dot />
        <stem>down</stem>
        <staff>1</staff>
      </note>
      <note default-x="12" default-y="30">
        <chord />
        <pitch>
          <step>G</step>
          <octave>4</octave>
        </pitch>
        <duration>30240</duration>
        <voice>1</voice>
        <type>half</type>
        <dot />
        <stem>down</stem>
        <staff>1</staff>
      </note>
      <note default-x="95.78" default-y="0">
        <pitch>
          <step>A</step>
          <octave>3</octave>
        </pitch>
        <duration>10080</duration>
        <voice>1</voice>
        <type>quarter</type>
        <stem>down</stem>
        <staff>1</staff>
      </note>
      <note default-x="95.78" default-y="10">
        <chord />
        <pitch>
          <step>C</step>
          <octave>4</octave>
        </pitch>
        <duration>10080</duration>
        <voice>1</voice>
        <type>quarter</type>
        <stem>down</stem>
        <staff>1</staff>
      </note>
      <note default-x="95.78" default-y="25">
        <chord />
        <pitch>
          <step>F</step>
          <alter>1</alter>
          <octave>4</octave>
        </pitch>
        <duration>10080</duration>
        <voice>1</voice>
        <type>quarter</type>
        <accidental>sharp</accidental>
        <stem>down</stem>
        <staff>1</staff>
      </note>
      <backup>
        <duration>40320</duration>
      </backup>
      <note default-x="12" default-y="-145" dynamics="83.33">
        <pitch>
          <step>E</step>
          <alter>-1</alter>
          <octave>2</octave>
        </pitch>
        <duration>30240</duration>
        <voice>2</voice>
        <type>half</type>
        <dot />
        <stem>up</stem>
        <staff>2</staff>
      </note>
      <note default-x="95.78" default-y="-150" dynamics="83.33">
        <pitch>
          <step>D</step>
          <octave>2</octave>
        </pitch>
        <duration>10080</duration>
        <voice>2</voice>
        <type>quarter</type>
        <stem>up</stem>
        <staff>2</staff>
      </note>
    </measure>
  </part>
</score-partwise>