<?xml version="1.0" encoding="utf-8"?>
<!DOCTYPE score-partwise  PUBLIC "-//Recordare//DTD MusicXML 3.1 Partwise//EN" "http://www.musicxml.org/dtds/partwise.dtd">
<score-partwise version="3.1">
  <work>
    <work-title>s9m4</work-title>
  </work>
  <movement-title>3.musicxml</movement-title>
  <identification>
    <creator type="composer">Beethoven. arr Liszt</creator>
    <encoding>
      <encoding-date>2026-03-11</encoding-date>
      <software>music21 v.8.3.0</software>
      <software>MuseScore 3.6.0</software>
      <supports attribute="new-system" element="print" type="yes" value="yes" />
      <supports attribute="new-page" element="print" type="yes" value="yes" />
    </encoding>
  </identification>
  <defaults>
    <scaling>
      <millimeters>7</millimeters>
      <tenths>40</tenths>
    </scaling>
  </defaults>
  <part-list>
    <score-part id="P1">
      <part-name>Piano</part-name>
      <part-abbreviation>Pno.</part-abbreviation>
      <score-instrument id="I8668cb2812c8443ab2de9b343d487d88">
        <instrument-name>Piano</instrument-name>
        <instrument-abbreviation>Pno</instrument-abbreviation>
      </score-instrument>
      <midi-instrument id="I8668cb2812c8443ab2de9b343d487d88">
        <midi-channel>1</midi-channel>
        <midi-program>1</midi-program>
      </midi-instrument>
    </score-part>
  </part-list>
  <!--=========================== Part 1 ===========================-->
  <part id="P1">
    <!--======================== Measure 561 =========================-->
    <measure number="561" width="201.96">
      <attributes>
        <divisions>10080</divisions>
        <key>
          <fifths>2</fifths>
        </key>
        <time>
          <beats>6</beats>
          <beat-type>8</beat-type>
        </time>
        <staves>2</staves>
        <clef number="1">
          <sign>G</sign>
          <line>2</line>
        </clef>
        <clef number="2">
          <sign>F</sign>
          <line>4</line>
        </clef>
      </attributes>
      <note default-x="25.12" default-y="-35">
        <pitch>
          <step>F</step>
          <alter>1</alter>
          <octave>4</octave>
        </pitch>
        <duration>15120</duration>
        <voice>1</voice>
        <type>quarter</type>
        <dot />
        <stem>down</stem>
        <staff>1</staff>
        <lyric default-x="6.5" default-y="-57.79" name="1" number="1" relative-y="-30">
          <syllabic>begin</syllabic>
          <text>Zau</text>
        </lyric>
      </note>
      <note default-x="25.12" default-y="-25">
        <chord />
        <pitch>
          <step>A</step>
          <octave>4</octave>
        </pitch>
        <duration>15120</duration>
        <voice>1</voice>
        <type>quarter</type>
        <dot />
        <stem>down</stem>
        <staff>1</staff>
      </note>
      <note default-x="25.12" default-y="-10">
        <chord />
        <pitch>
          <step>D</step>
          <octave>5</octave>
        </pitch>
        <duration>15120</duration>
        <voice>1</voice>
        <type>quarter</type>
        <dot />
        <stem>down</stem>
        <staff>1</staff>
      </note>
      <note default-x="25.12" default-y="0">
        <chord />
        <pitch>
          <step>F</step>
          <alter>1</alter>
          <octave>5</octave>
        </pitch>
        <duration>15120</duration>
        <voice>1</voice>
        <type>quarter</type>
        <dot />
        <stem>down</stem>
        <staff>1</staff>
      </note>
      <note default-x="112.81" default-y="-45">
        <pitch>
          <step>D</step>
          <octave>4</octave>
        </pitch>
        <duration>15120</duration>
        <voice>1</voice>
        <type>quarter</type>
        <dot />
        <stem>up</stem>
        <staff>1</staff>
        <lyric default-x="6.5" default-y="-57.79" name="1" number="1" relative-y="-30">
          <syllabic>end</syllabic>
          <text>ber</text>
        </lyric>
      </note>
      <note default-x="112.81" default-y="-35">
        <chord />
        <pitch>
          <step>F</step>
          <alter>1</alter>
          <octave>4</octave>
        </pitch>
        <duration>15120</duration>
        <voice>1</voice>
        <type>quarter</type>
        <dot />
        <stem>up</stem>
        <staff>1</staff>
      </note>
      <note default-x="112.81" default-y="-25">
        <chord />
        <pitch>
          <step>A</step>
          <octave>4</octave>
        </pitch>
        <duration>15120</duration>
        <voice>1</voice>
        <type>quarter</type>
        <dot />
        <stem>up</stem>
        <staff>1</staff>
      </note>
      <note default-x="112.81" default-y="-10">
        <chord />
        <pitch>
          <step>D</step>
          <octave>5</octave>
        </pitch>
        <duration>15120</duration>
        <voice>1</voice>
        <type>quarter</type>
        <dot />
        <stem>up</stem>
        <staff>1</staff>
      </note>
      <backup>
        <duration>30240</duration>
      </backup>
      <note print-object="no" print-spacing="yes">
        <rest measure="yes" />
        <duration>30240</duration>
        <voice>6</voice>
        <staff>2</staff>
      </note>
      <backup>
        <duration>30240</duration>
      </backup>
      <note default-x="25.12" default-y="-218.44">
        <pitch>
          <step>A</step>
          <octave>1</octave>
        </pitch>
        <duration>5040</duration>
        <voice>9</voice>
        <type>eighth</type>
        <stem>up</stem>
        <staff>2</staff>
        <beam number="1">begin</beam>
      </note>
      <note default-x="25.12" default-y="-183.44">
        <chord />
        <pitch>
          <step>A</step>
          <octave>2</octave>
        </pitch>
        <duration>5040</duration>
        <voice>9</voice>
        <type>eighth</type>
        <stem>up</stem>
        <staff>2</staff>
      </note>
      <note default-x="54.24" default-y="-183.44">
        <pitch>
          <step>A</step>
          <octave>2</octave>
        </pitch>
        <duration>5040</duration>
        <voice>9</voice>
        <type>eighth</type>
        <stem>up</stem>
        <staff>2</staff>
        <beam number="1">continue</beam>
      </note>
      <note default-x="54.24" default-y="-148.44">
        <chord />
        <pitch>
          <step>A</step>
          <octave>3</octave>
        </pitch>
        <duration>5040</duration>
        <voice>9</voice>
        <type>eighth</type>
        <stem>up</stem>
        <staff>2</staff>
      </note>
      <note default-x="83.69" default-y="-188.44">
        <pitch>
          <step>G</step>
          <alter>1</alter>
          <octave>2</octave>
        </pitch>
        <duration>5040</duration>
        <voice>9</voice>
        <type>eighth</type>
        <accidental>sharp</accidental>
        <stem>up</stem>
        <staff>2</staff>
        <beam number="1">end</beam>
      </note>
      <note default-x="83.69" default-y="-153.44">
        <chord />
        <pitch>
          <step>G</step>
          <alter>1</alter>
          <octave>3</octave>
        </pitch>
        <duration>5040</duration>
        <voice>9</voice>
        <type>eighth</type>
        <accidental>sharp</accidental>
        <stem>up</stem>
        <staff>2</staff>
      </note>
      <note default-x="112.81" default-y="-183.44">
        <pitch>
          <step>A</step>
          <octave>2</octave>
        </pitch>
        <duration>5040</duration>
        <voice>9</voice>
        <type>eighth</type>
        <stem>up</stem>
        <staff>2</staff>
        <beam number="1">begin</beam>
      </note>
      <note default-x="112.81" default-y="-148.44">
        <chord />
        <pitch>
          <step>A</step>
          <octave>3</octave>
        </pitch>
        <duration>5040</duration>
        <voice>9</voice>
        <type>eighth</type>
        <stem>up</stem>
        <staff>2</staff>
      </note>
      <note default-x="141.93" default-y="-193.44">
        <pitch>
          <step>F</step>
          <alter>1</alter>
          <octave>2</octave>
        </pitch>
        <duration>5040</duration>
        <voice>9</voice>
        <type>eighth</type>
        <stem>up</stem>
        <staff>2</staff>
        <beam number="1">continue</beam>
      </note>
      <note default-x="141.93" default-y="-158.44">
        <chord />
        <pitch>
          <step>F</step>
          <alter>1</alter>
          <octave>3</octave>
        </pitch>
        <duration>5040</duration>
        <voice>9</voice>
        <type>eighth</type>
        <stem>up</stem>
        <staff>2</staff>
      </note>
      <note default-x="171.04" default-y="-203.44">
        <pitch>
          <step>D</step>
          <octave>2</octave>
        </pitch>
        <duration>5040</duration>
        <voice>9</voice>
        <type>eighth</type>
        <stem>up</stem>
        <staff>2</staff>
        <beam number="1">end</beam>
      </note>
      <note default-x="171.04" default-y="-168.44">
        <chord />
        <pitch>
          <step>D</step>
          <octave>3</octave>
        </pitch>
        <duration>5040</duration>
        <voice>9</voice>
        <type>eighth</type>
        <stem>up</stem>
        <staff>2</staff>
      </note>
    </measure>
    <!--======================== Measure 562 =========================-->
    <measure number="562" width="178.5">
      <note default-x="22.31" default-y="-40">
        <pitch>
          <step>E</step>
          <octave>4</octave>
        </pitch>
        <duration>15120</duration>
        <voice>1</voice>
        <type>quarter</type>
        <dot />
        <stem>up</stem>
        <staff>1</staff>
        <lyric default-x="6.5" default-y="-57.79" name="1" number="1" relative-y="-30">
          <syllabic>begin</syllabic>
          <text>bin</text>
        </lyric>
      </note>
      <note default-x="22.31" default-y="-25">
        <chord />
        <pitch>
          <step>A</step>
          <octave>4</octave>
        </pitch>
        <duration>15120</duration>
        <voice>1</voice>
        <type>quarter</type>
        <dot />
        <stem>up</stem>
        <staff>1</staff>
      </note>
      <note default-x="22.31" default-y="-15">
        <chord />
        <pitch>
          <step>C</step>
          <alter>1</alter>
          <octave>5</octave>
        </pitch>
        <duration>15120</duration>
        <voice>1</voice>
        <type>quarter</type>
        <dot />
        <stem>up</stem>
        <staff>1</staff>
      </note>
      <note default-x="22.31" default-y="-5">
        <chord />
        <pitch>
          <step>E</step>
          <octave>5</octave>
        </pitch>
        <duration>15120</duration>
        <voice>1</voice>
        <type>quarter</type>
        <dot />
        <stem>up</stem>
        <staff>1</staff>
      </note>
      <note default-x="98.14" default-y="-35">
        <pitch>
          <step>F</step>
          <alter>1</alter>
          <octave>4</octave>
        </pitch>
        <duration>10080</duration>
        <voice>1</voice>
        <type>quarter</type>
        <stem>down</stem>
        <staff>1</staff>
        <lyric default-y="-57.79" name="1" number="1" relative-y="-30">
          <syllabic>end</syllabic>
          <text>den</text>
        </lyric>
      </note>
      <note default-x="98.14" default-y="-10">
        <chord />
        <pitch>
          <step>D</step>
          <octave>5</octave>
        </pitch>
        <duration>10080</duration>
        <voice>1</voice>
        <type>quarter</type>
        <stem>down</stem>
        <staff>1</staff>
      </note>
      <note default-x="98.14" default-y="0">
        <chord />
        <pitch>
          <step>F</step>
          <alter>1</alter>
          <octave>5</octave>
        </pitch>
        <duration>10080</duration>
        <voice>1</voice>
        <type>quarter</type>
        <stem>down</stem>
        <staff>1</staff>
      </note>
      <note default-x="148.7" default-y="-30">
        <pitch>
          <step>G</step>
          <octave>4</octave>
        </pitch>
        <duration>5040</duration>
        <voice>1</voice>
        <type>eighth</type>
        <stem>down</stem>
        <staff>1</staff>
      </note>
      <note default-x="148.7" default-y="-5">
        <chord />
        <pitch>
          <step>E</step>
          <octave>5</octave>
        </pitch>
        <duration>5040</duration>
        <voice>1</voice>
        <type>eighth</type>
        <stem>down</stem>
        <staff>1</staff>
      </note>
      <note default-x="148.7" default-y="5">
        <chord />
        <pitch>
          <step>G</step>
          <octave>5</octave>
        </pitch>
        <duration>5040</duration>
        <voice>1</voice>
        <type>eighth</type>
        <stem>down</stem>
        <staff>1</staff>
      </note>
      <backup>
        <duration>30240</duration>
      </backup>
      <note print-object="no" print-spacing="yes">
        <rest measure="yes" />
        <duration>30240</duration>
        <voice>6</voice>
        <staff>2</staff>
      </note>
      <backup>
        <duration>30240</duration>
      </backup>
      <note default-x="22.31" default-y="-218.44">
        <pitch>
          <step>A</step>
          <octave>1</octave>
        </pitch>
        <duration>5040</duration>
        <voice>9</voice>
        <type>eighth</type>
        <stem>up</stem>
        <staff>2</staff>
        <beam number="1">begin</beam>
      </note>
      <note default-x="22.31" default-y="-183.44">
        <chord />
        <pitch>
          <step>A</step>
          <octave>2</octave>
        </pitch>
        <duration>5040</duration>
        <voice>9</voice>
        <type>eighth</type>
        <stem>up</stem>
        <staff>2</staff>
      </note>
      <note default-x="47.59" default-y="-183.44">
        <pitch>
          <step>A</step>
          <octave>2</octave>
        </pitch>
        <duration>5040</duration>
        <voice>9</voice>
        <type>eighth</type>
        <stem>up</stem>
        <staff>2</staff>
        <beam number="1">continue</beam>
      </note>
      <note default-x="47.59" default-y="-148.44">
        <chord />
        <pitch>
          <step>A</step>
          <octave>3</octave>
        </pitch>
        <duration>5040</duration>
        <voice>9</voice>
        <type>eighth</type>
        <stem>up</stem>
        <staff>2</staff>
      </note>
      <note default-x="72.87" default-y="-178.44">
        <pitch>
          <step>B</step>
          <octave>2</octave>
        </pitch>
        <duration>5040</duration>
        <voice>9</voice>
        <type>eighth</type>
        <stem>up</stem>
        <staff>2</staff>
        <beam number="1">end</beam>
      </note>
      <note default-x="72.87" default-y="-143.44">
        <chord />
        <pitch>
          <step>B</step>
          <octave>3</octave>
        </pitch>
        <duration>5040</duration>
        <voice>9</voice>
        <type>eighth</type>
        <stem>up</stem>
        <staff>2</staff>
      </note>
      <note default-x="98.14" default-y="-183.44">
        <pitch>
          <step>A</step>
          <octave>2</octave>
        </pitch>
        <duration>5040</duration>
        <voice>9</voice>
        <type>eighth</type>
        <stem>down</stem>
        <staff>2</staff>
        <beam number="1">begin</beam>
      </note>
      <note default-x="98.14" default-y="-148.44">
        <chord />
        <pitch>
          <step>A</step>
          <octave>3</octave>
        </pitch>
        <duration>5040</duration>
        <voice>9</voice>
        <type>eighth</type>
        <stem>down</stem>
        <staff>2</staff>
      </note>
      <note default-x="123.42" default-y="-183.44">
        <pitch>
          <step>A</step>
          <octave>2</octave>
        </pitch>
        <duration>5040</duration>
        <voice>9</voice>
        <type>eighth</type>
        <stem>down</stem>
        <staff>2</staff>
        <beam number="1">continue</beam>
      </note>
      <note default-x="123.42" default-y="-148.44">
        <chord />
        <pitch>
          <step>A</step>
          <octave>3</octave>
        </pitch>
        <duration>5040</duration>
        <voice>9</voice>
        <type>eighth</type>
        <stem>down</stem>
        <staff>2</staff>
      </note>
      <note default-x="148.7" default-y="-183.44">
        <pitch>
          <step>A</step>
          <octave>2</octave>
        </pitch>
        <duration>5040</duration>
        <voice>9</voice>
        <type>eighth</type>
        <stem>down</stem>
        <staff>2</staff>
        <beam number="1">end</beam>
      </note>
      <note default-x="148.7" default-y="-148.44">
        <chord />
        <pitch>
          <step>A</step>
          <octave>3</octave>
        </pitch>
        <duration>5040</duration>
        <voice>9</voice>
        <type>eighth</type>
        <stem>down</stem>
        <staff>2</staff>
      </note>
    </measure>
    <!--======================== Measure 563 =========================-->
    <measure number="563" width="267.49">
      <print new-system="yes">
        <system-layout>
          <system-margins>
            <left-margin>0</left-margin>
            <right-margin>0</right-margin>
          </system-margins>
          <system-distance>150</system-distance>
        </system-layout>
      </print>
      <note default-x="94.62" default-y="-35">
        <pitch>
          <step>F</step>
          <alter>1</alter>
          <octave>4</octave>
        </pitch>
        <duration>15120</duration>
        <voice>1</voice>
        <type>quarter</type>
        <dot />
        <stem>down</stem>
        <staff>1</staff>
        <lyric default-x="6.5" default-y="-86.26" name="1" number="1" relative-y="-30">
          <syllabic>begin</syllabic>
          <text>wie</text>
        </lyric>
      </note>
      <note default-x="94.62" default-y="-10">
        <chord />
        <pitch>
          <step>D</step>
          <octave>5</octave>
        </pitch>
        <duration>15120</duration>
        <voice>1</voice>
        <type>quarter</type>
        <dot />
        <stem>down</stem>
        <staff>1</staff>
      </note>
      <note default-x="94.62" default-y="0">
        <chord />
        <pitch>
          <step>F</step>
          <alter>1</alter>
          <octave>5</octave>
        </pitch>
        <duration>15120</duration>
        <voice>1</voice>
        <type>quarter</type>
        <dot />
        <stem>down</stem>
        <staff>1</staff>
      </note>
      <note default-x="180.72" default-y="-45">
        <pitch>
          <step>D</step>
          <octave>5</octave>
        </pitch>
        <duration>15120</duration>
        <voice>1</voice>
        <type>quarter</type>
        <dot />
        <stem>up</stem>
        <staff>1</staff>
        <lyric default-x="9.1" default-y="-86.26" name="1" number="1" relative-y="-30">
          <syllabic>end</syllabic>
          <text>der,</text>
        </lyric>
      </note>
      <note default-x="180.72" default-y="-35">
        <chord />
        <pitch>
          <step>F</step>
          <alter>1</alter>
          <octave>5</octave>
        </pitch>
        <duration>15120</duration>
        <voice>1</voice>
        <type>quarter</type>
        <dot />
        <stem>up</stem>
        <staff>1</staff>
      </note>
      <note default-x="180.72" default-y="-25">
        <chord />
        <pitch>
          <step>A</step>
          <octave>5</octave>
        </pitch>
        <duration>15120</duration>
        <voice>1</voice>
        <type>quarter</type>
        <dot />
        <stem>up</stem>
        <staff>1</staff>
      </note>
      <note default-x="180.72" default-y="-10">
        <chord />
        <pitch>
          <step>D</step>
          <octave>6</octave>
        </pitch>
        <duration>15120</duration>
        <voice>1</voice>
        <type>quarter</type>
        <dot />
        <stem>up</stem>
        <staff>1</staff>
      </note>
      <backup>
        <duration>30240</duration>
      </backup>
      <attributes>
        <staff-details print-object="yes" />
      </attributes>
      <note print-object="no" print-spacing="yes">
        <rest measure="yes" />
        <duration>30240</duration>
        <voice>6</voice>
        <staff>2</staff>
      </note>
      <backup>
        <duration>30240</duration>
      </backup>
      <note default-x="94.62" default-y="-247.74">
        <pitch>
          <step>A</step>
          <octave>1</octave>
        </pitch>
        <duration>5040</duration>
        <voice>9</voice>
        <type>eighth</type>
        <stem>up</stem>
        <staff>2</staff>
        <beam number="1">begin</beam>
      </note>
      <note default-x="94.62" default-y="-212.74">
        <chord />
        <pitch>
          <step>A</step>
          <octave>2</octave>
        </pitch>
        <duration>5040</duration>
        <voice>9</voice>
        <type>eighth</type>
        <stem>up</stem>
        <staff>2</staff>
      </note>
      <note default-x="122.94" default-y="-212.74">
        <pitch>
          <step>A</step>
          <octave>2</octave>
        </pitch>
        <duration>5040</duration>
        <voice>9</voice>
        <type>eighth</type>
        <stem>up</stem>
        <staff>2</staff>
        <beam number="1">continue</beam>
      </note>
      <note default-x="122.94" default-y="-177.74">
        <chord />
        <pitch>
          <step>A</step>
          <octave>3</octave>
        </pitch>
        <duration>5040</duration>
        <voice>9</voice>
        <type>eighth</type>
        <stem>up</stem>
        <staff>2</staff>
      </note>
      <note default-x="152.4" default-y="-217.74">
        <pitch>
          <step>G</step>
          <alter>1</alter>
          <octave>2</octave>
        </pitch>
        <duration>5040</duration>
        <voice>9</voice>
        <type>eighth</type>
        <accidental>sharp</accidental>
        <stem>up</stem>
        <staff>2</staff>
        <beam number="1">end</beam>
      </note>
      <note default-x="152.4" default-y="-182.74">
        <chord />
        <pitch>
          <step>G</step>
          <alter>1</alter>
          <octave>3</octave>
        </pitch>
        <duration>5040</duration>
        <voice>9</voice>
        <type>eighth</type>
        <accidental>sharp</accidental>
        <stem>up</stem>
        <staff>2</staff>
      </note>
      <note default-x="180.72" default-y="-212.74">
        <pitch>
          <step>A</step>
          <octave>2</octave>
        </pitch>
        <duration>5040</duration>
        <voice>9</voice>
        <type>eighth</type>
        <stem>up</stem>
        <staff>2</staff>
        <beam number="1">begin</beam>
      </note>
      <note default-x="180.72" default-y="-177.74">
        <chord />
        <pitch>
          <step>A</step>
          <octave>3</octave>
        </pitch>
        <duration>5040</duration>
        <voice>9</voice>
        <type>eighth</type>
        <stem>up</stem>
        <staff>2</staff>
      </note>
      <note default-x="209.04" default-y="-222.74">
        <pitch>
          <step>F</step>
          <alter>1</alter>
          <octave>2</octave>
        </pitch>
        <duration>5040</duration>
        <voice>9</voice>
        <type>eighth</type>
        <stem>up</stem>
        <staff>2</staff>
        <beam number="1">continue</beam>
      </note>
      <note default-x="209.04" default-y="-187.74">
        <chord />
        <pitch>
          <step>F</step>
          <alter>1</alter>
          <octave>3</octave>
        </pitch>
        <duration>5040</duration>
        <voice>9</voice>
        <type>eighth</type>
        <stem>up</stem>
        <staff>2</staff>
      </note>
      <note default-x="237.37" default-y="-232.74">
        <pitch>
          <step>D</step>
          <octave>2</octave>
        </pitch>
        <duration>5040</duration>
        <voice>9</voice>
        <type>eighth</type>
        <stem>up</stem>
        <staff>2</staff>
        <beam number="1">end</beam>
      </note>
      <note default-x="237.37" default-y="-197.74">
        <chord />
        <pitch>
          <step>D</step>
          <octave>3</octave>
        </pitch>
        <duration>5040</duration>
        <voice>9</voice>
        <type>eighth</type>
        <stem>up</stem>
        <staff>2</staff>
      </note>
    </measure>
    <!--======================== Measure 564 =========================-->
    <measure number="564" width="177.37">
      <note default-x="25.15" default-y="-40">
        <pitch>
          <step>E</step>
          <octave>5</octave>
        </pitch>
        <duration>15120</duration>
        <voice>1</voice>
        <type>quarter</type>
        <dot />
        <stem>up</stem>
        <staff>1</staff>
        <lyric default-x="6.5" default-y="-86.26" name="1" number="1" relative-y="-30">
          <syllabic>single</syllabic>
          <text>was</text>
        </lyric>
      </note>
      <note default-x="25.15" default-y="-25">
        <chord />
        <pitch>
          <step>A</step>
          <octave>5</octave>
        </pitch>
        <duration>15120</duration>
        <voice>1</voice>
        <type>quarter</type>
        <dot />
        <stem>up</stem>
        <staff>1</staff>
      </note>
      <note default-x="25.15" default-y="-15">
        <chord />
        <pitch>
          <step>C</step>
          <alter>1</alter>
          <octave>6</octave>
        </pitch>
        <duration>15120</duration>
        <voice>1</voice>
        <type>quarter</type>
        <dot />
        <stem>up</stem>
        <staff>1</staff>
      </note>
      <note default-x="25.15" default-y="-5">
        <chord />
        <pitch>
          <step>E</step>
          <octave>6</octave>
        </pitch>
        <duration>15120</duration>
        <voice>1</voice>
        <type>quarter</type>
        <dot />
        <stem>up</stem>
        <staff>1</staff>
      </note>
      <note default-x="98.6" default-y="-35">
        <pitch>
          <step>F</step>
          <alter>1</alter>
          <octave>5</octave>
        </pitch>
        <duration>10080</duration>
        <voice>1</voice>
        <type>quarter</type>
        <stem>down</stem>
        <staff>1</staff>
        <lyric default-y="-86.26" name="1" number="1" relative-y="-30">
          <syllabic>single</syllabic>
          <text>de</text>
        </lyric>
      </note>
      <note default-x="98.6" default-y="-10">
        <chord />
        <pitch>
          <step>D</step>
          <octave>6</octave>
        </pitch>
        <duration>10080</duration>
        <voice>1</voice>
        <type>quarter</type>
        <stem>down</stem>
        <staff>1</staff>
      </note>
      <note default-x="98.6" default-y="0">
        <chord />
        <pitch>
          <step>F</step>
          <alter>1</alter>
          <octave>6</octave>
        </pitch>
        <duration>10080</duration>
        <voice>1</voice>
        <type>quarter</type>
        <stem>down</stem>
        <staff>1</staff>
      </note>
      <note default-x="147.57" default-y="-30">
        <pitch>
          <step>G</step>
          <octave>5</octave>
        </pitch>
        <duration>5040</duration>
        <voice>1</voice>
        <type>eighth</type>
        <stem>down</stem>
        <staff>1</staff>
      </note>
      <note default-x="147.57" default-y="-5">
        <chord />
        <pitch>
          <step>E</step>
          <octave>6</octave>
        </pitch>
        <duration>5040</duration>
        <voice>1</voice>
        <type>eighth</type>
        <stem>down</stem>
        <staff>1</staff>
      </note>
      <note default-x="147.57" default-y="5">
        <chord />
        <pitch>
          <step>G</step>
          <octave>6</octave>
        </pitch>
        <duration>5040</duration>
        <voice>1</voice>
        <type>eighth</type>
        <stem>down</stem>
        <staff>1</staff>
      </note>
      <backup>
        <duration>30240</duration>
      </backup>
      <note print-object="no" print-spacing="yes">
        <rest measure="yes" />
        <duration>30240</duration>
        <voice>6</voice>
        <staff>2</staff>
      </note>
      <backup>
        <duration>30240</duration>
      </backup>
      <note default-x="25.15" default-y="-247.74">
        <pitch>
          <step>A</step>
          <octave>1</octave>
        </pitch>
        <duration>5040</duration>
        <voice>9</voice>
        <type>eighth</type>
        <stem>up</stem>
        <staff>2</staff>
        <beam number="1">begin</beam>
      </note>
      <note default-x="25.15" default-y="-212.74">
        <chord />
        <pitch>
          <step>A</step>
          <octave>2</octave>
        </pitch>
        <duration>5040</duration>
        <voice>9</voice>
        <type>eighth</type>
        <stem>up</stem>
        <staff>2</staff>
      </note>
      <note default-x="49.63" default-y="-212.74">
        <pitch>
          <step>A</step>
          <octave>2</octave>
        </pitch>
        <duration>5040</duration>
        <voice>9</voice>
        <type>eighth</type>
        <stem>up</stem>
        <staff>2</staff>
        <beam number="1">continue</beam>
      </note>
      <note default-x="49.63" default-y="-177.74">
        <chord />
        <pitch>
          <step>A</step>
          <octave>3</octave>
        </pitch>
        <duration>5040</duration>
        <voice>9</voice>
        <type>eighth</type>
        <stem>up</stem>
        <staff>2</staff>
      </note>
      <note default-x="74.12" default-y="-207.74">
        <pitch>
          <step>B</step>
          <octave>2</octave>
        </pitch>
        <duration>5040</duration>
        <voice>9</voice>
        <type>eighth</type>
        <stem>up</stem>
        <staff>2</staff>
        <beam number="1">end</beam>
      </note>
      <note default-x="74.12" default-y="-172.74">
        <chord />
        <pitch>
          <step>B</step>
          <octave>3</octave>
        </pitch>
        <duration>5040</duration>
        <voice>9</voice>
        <type>eighth</type>
        <stem>up</stem>
        <staff>2</staff>
      </note>
      <note default-x="98.6" default-y="-212.74">
        <pitch>
          <step>A</step>
          <octave>2</octave>
        </pitch>
        <duration>5040</duration>
        <voice>9</voice>
        <type>eighth</type>
        <stem>down</stem>
        <staff>2</staff>
        <beam number="1">begin</beam>
      </note>
      <note default-x="98.6" default-y="-177.74">
        <chord />
        <pitch>
          <step>A</step>
          <octave>3</octave>
        </pitch>
        <duration>5040</duration>
        <voice>9</voice>
        <type>eighth</type>
        <stem>down</stem>
        <staff>2</staff>
      </note>
      <note default-x="123.09" default-y="-212.74">
        <pitch>
          <step>A</step>
          <octave>2</octave>
        </pitch>
        <duration>5040</duration>
        <voice>9</voice>
        <type>eighth</type>
        <stem>down</stem>
        <staff>2</staff>
        <beam number="1">continue</beam>
      </note>
      <note default-x="123.09" default-y="-177.74">
        <chord />
        <pitch>
          <step>A</step>
          <octave>3</octave>
        </pitch>
        <duration>5040</duration>
        <voice>9</voice>
        <type>eighth</type>
        <stem>down</stem>
        <staff>2</staff>
      </note>
      <note default-x="147.57" default-y="-212.74">
        <pitch>
          <step>A</step>
          <octave>2</octave>
        </pitch>
        <duration>5040</duration>
        <voice>9</voice>
        <type>eighth</type>
        <stem>down</stem>
        <staff>2</staff>
        <beam number="1">end</beam>
      </note>
      <note default-x="147.57" default-y="-177.74">
        <chord />
        <pitch>
          <step>A</step>
          <octave>3</octave>
        </pitch>
        <duration>5040</duration>
        <voice>9</voice>
        <type>eighth</type>
        <stem>down</stem>
        <staff>2</staff>
      </note>
    </measure>
    <!--======================== Measure 565 =========================-->
    <measure number="565" width="205.33">
      <note default-x="20.96" default-y="-35">
        <pitch>
          <step>F</step>
          <alter>1</alter>
          <octave>5</octave>
        </pitch>
        <duration>15120</duration>
        <voice>1</voice>
        <type>quarter</type>
        <dot />
        <stem>down</stem>
        <staff>1</staff>
        <lyric default-x="6.5" default-y="-86.26" name="1" number="1" relative-y="-30">
          <syllabic>begin</syllabic>
          <text>Mo</text>
        </lyric>
      </note>
      <note default-x="20.96" default-y="-15">
        <chord />
        <pitch>
          <step>C</step>
          <alter>1</alter>
          <octave>6</octave>
        </pitch>
        <duration>15120</duration>
        <voice>1</voice>
        <type>quarter</type>
        <dot />
        <stem>down</stem>
        <staff>1</staff>
      </note>
      <note default-x="20.96" default-y="0">
        <chord />
        <pitch>
          <step>F</step>
          <alter>1</alter>
          <octave>6</octave>
        </pitch>
        <duration>15120</duration>
        <voice>1</voice>
        <type>quarter</type>
        <dot />
        <stem>down</stem>
        <staff>1</staff>
      </note>
      <note default-x="112.24" default-y="-40">
        <pitch>
          <step>E</step>
          <octave>5</octave>
        </pitch>
        <duration>15120</duration>
        <voice>1</voice>
        <type>quarter</type>
        <dot />
        <stem>up</stem>
        <staff>1</staff>
        <lyric default-x="6.5" default-y="-86.26" name="1" number="1" relative-y="-30">
          <syllabic>end</syllabic>
          <text>de</text>
        </lyric>
      </note>
      <note default-x="112.24" default-y="-25">
        <chord />
        <pitch>
          <step>A</step>
          <alter>1</alter>
          <octave>5</octave>
        </pitch>
        <duration>15120</duration>
        <voice>1</voice>
        <type>quarter</type>
        <dot />
        <accidental>sharp</accidental>
        <stem>up</stem>
        <staff>1</staff>
      </note>
      <note default-x="112.24" default-y="-15">
        <chord />
        <pitch>
          <step>C</step>
          <alter>1</alter>
          <octave>6</octave>
        </pitch>
        <duration>15120</duration>
        <voice>1</voice>
        <type>quarter</type>
        <dot />
        <stem>up</stem>
        <staff>1</staff>
      </note>
      <note default-x="112.24" default-y="-5">
        <chord />
        <pitch>
          <step>E</step>
          <octave>6</octave>
        </pitch>
        <duration>15120</duration>
        <voice>1</voice>
        <type>quarter</type>
        <dot />
        <stem>up</stem>
        <staff>1</staff>
      </note>
      <backup>
        <duration>30240</duration>
      </backup>
      <note print-object="no" print-spacing="yes">
        <rest measure="yes" />
        <duration>30240</duration>
        <voice>6</voice>
        <staff>2</staff>
      </note>
      <backup>
        <duration>30240</duration>
      </backup>
      <note default-x="20.96" default-y="-212.74">
        <pitch>
          <step>A</step>
          <alter>1</alter>
          <octave>2</octave>
        </pitch>
        <duration>5040</duration>
        <voice>9</voice>
        <type>eighth</type>
        <accidental>sharp</accidental>
        <stem>down</stem>
        <staff>2</staff>
      </note>
      <note default-x="20.96" default-y="-177.74">
        <chord />
        <pitch>
          <step>A</step>
          <alter>1</alter>
          <octave>3</octave>
        </pitch>
        <duration>5040</duration>
        <voice>9</voice>
        <type>eighth</type>
        <accidental>sharp</accidental>
        <stem>down</stem>
        <staff>2</staff>
      </note>
      <note default-x="51.39" default-y="-177.74">
        <pitch>
          <step>A</step>
          <alter>1</alter>
          <octave>3</octave>
        </pitch>
        <duration>5040</duration>
        <voice>9</voice>
        <type>eighth</type>
        <stem>up</stem>
        <staff>2</staff>
        <beam number="1">begin</beam>
      </note>
      <note default-x="51.39" default-y="-167.74">
        <chord />
        <pitch>
          <step>C</step>
          <alter>1</alter>
          <octave>4</octave>
        </pitch>
        <duration>5040</duration>
        <voice>9</voice>
        <type>eighth</type>
        <stem>up</stem>
        <staff>2</staff>
      </note>
      <note default-x="51.39" default-y="-152.74">
        <chord />
        <pitch>
          <step>F</step>
          <alter>1</alter>
          <octave>4</octave>
        </pitch>
        <duration>5040</duration>
        <voice>9</voice>
        <type>eighth</type>
        <stem>up</stem>
        <staff>2</staff>
      </note>
      <note default-x="81.82" default-y="-177.74">
        <pitch>
          <step>A</step>
          <alter>1</alter>
          <octave>3</octave>
        </pitch>
        <duration>5040</duration>
        <voice>9</voice>
        <type>eighth</type>
        <stem>up</stem>
        <staff>2</staff>
        <beam number="1">end</beam>
      </note>
      <note default-x="81.82" default-y="-167.74">
        <chord />
        <pitch>
          <step>C</step>
          <alter>1</alter>
          <octave>4</octave>
        </pitch>
        <duration>5040</duration>
        <voice>9</voice>
        <type>eighth</type>
        <stem>up</stem>
        <staff>2</staff>
      </note>
      <note default-x="81.82" default-y="-152.74">
        <chord />
        <pitch>
          <step>F</step>
          <alter>1</alter>
          <octave>4</octave>
        </pitch>
        <duration>5040</duration>
        <voice>9</voice>
        <type>eighth</type>
        <stem>up</stem>
        <staff>2</staff>
      </note>
      <note default-x="112.24" default-y="-222.74">
        <pitch>
          <step>F</step>
          <alter>1</alter>
          <octave>2</octave>
        </pitch>
        <duration>5040</duration>
        <voice>9</voice>
        <type>eighth</type>
        <stem>up</stem>
        <staff>2</staff>
      </note>
      <note default-x="112.24" default-y="-187.74">
        <chord />
        <pitch>
          <step>F</step>
          <alter>1</alter>
          <octave>3</octave>
        </pitch>
        <duration>5040</duration>
        <voice>9</voice>
        <type>eighth</type>
        <stem>up</stem>
        <staff>2</staff>
      </note>
      <note default-x="142.67" default-y="-187.74">
        <pitch>
          <step>F</step>
          <alter>1</alter>
          <octave>3</octave>
        </pitch>
        <duration>5040</duration>
        <voice>9</voice>
        <type>eighth</type>
        <stem>up</stem>
        <staff>2</staff>
        <beam number="1">begin</beam>
      </note>
      <note default-x="142.67" default-y="-167.74">
        <chord />
        <pitch>
          <step>C</step>
          <alter>1</alter>
          <octave>4</octave>
        </pitch>
        <duration>5040</duration>
        <voice>9</voice>
        <type>eighth</type>
        <stem>up</stem>
        <staff>2</staff>
      </note>
      <note default-x="142.67" default-y="-157.74">
        <chord />
        <pitch>
          <step>E</step>
          <octave>4</octave>
        </pitch>
        <duration>5040</duration>
        <voice>9</voice>
        <type>eighth</type>
        <stem>up</stem>
        <staff>2</staff>
      </note>
      <note default-x="173.1" default-y="-187.74">
        <pitch>
          <step>F</step>
          <alter>1</alter>
          <octave>3</octave>
        </pitch>
        <duration>5040</duration>
        <voice>9</voice>
        <type>eighth</type>
        <stem>up</stem>
        <staff>2</staff>
        <beam number="1">end</beam>
      </note>
      <note default-x="173.1" default-y="-167.74">
        <chord />
        <pitch>
          <step>C</step>
          <alter>1</alter>
          <octave>4</octave>
        </pitch>
        <duration>5040</duration>
        <voice>9</voice>
        <type>eighth</type>
        <stem>up</stem>
        <staff>2</staff>
      </note>
      <note default-x="173.1" default-y="-157.74">
        <chord />
        <pitch>
          <step>E</step>
          <octave>4</octave>
        </pitch>
        <duration>5040</duration>
        <voice>9</voice>
        <type>eighth</type>
        <stem>up</stem>
        <staff>2</staff>
      </note>
    </measure>
    <!--======================== Measure 566 =========================-->
    <measure number="566" width="252.28">
      <note default-x="36.72" default-y="-45">
        <pitch>
          <step>D</step>
          <octave>5</octave>
        </pitch>
        <duration>15120</duration>
        <voice>1</voice>
        <type>quarter</type>
        <dot />
        <stem>up</stem>
        <staff>1</staff>
        <lyric default-x="6.5" default-y="-86.26" name="1" number="1" relative-y="-30">
          <syllabic>single</syllabic>
          <text>streng</text>
        </lyric>
      </note>
      <note default-x="36.72" default-y="-35">
        <chord />
        <pitch>
          <step>F</step>
          <alter>1</alter>
          <octave>5</octave>
        </pitch>
        <duration>15120</duration>
        <voice>1</voice>
        <type>quarter</type>
        <dot />
        <stem>up</stem>
        <staff>1</staff>
      </note>
      <note default-x="36.72" default-y="-20">
        <chord />
        <pitch>
          <step>B</step>
          <octave>5</octave>
        </pitch>
        <duration>15120</duration>
        <voice>1</voice>
        <type>quarter</type>
        <dot />
        <stem>up</stem>
        <staff>1</staff>
      </note>
      <note default-x="36.72" default-y="-10">
        <chord />
        <pitch>
          <step>D</step>
          <octave>6</octave>
        </pitch>
        <duration>15120</duration>
        <voice>1</voice>
        <type>quarter</type>
        <dot />
        <stem>up</stem>
        <staff>1</staff>
      </note>
      <note default-x="138.27" default-y="-40">
        <pitch>
          <step>E</step>
          <octave>5</octave>
        </pitch>
        <duration>15120</duration>
        <voice>1</voice>
        <type>quarter</type>
        <dot />
        <stem>up</stem>
        <staff>1</staff>
        <lyric default-x="6.5" default-y="-86.26" name="1" number="1" relative-y="-30">
          <syllabic>begin</syllabic>
          <text>ge</text>
        </lyric>
      </note>
      <note default-x="138.27" default-y="-30">
        <chord />
        <pitch>
          <step>G</step>
          <alter>1</alter>
          <octave>5</octave>
        </pitch>
        <duration>15120</duration>
        <voice>1</voice>
        <type>quarter</type>
        <dot />
        <accidental>sharp</accidental>
        <stem>up</stem>
        <staff>1</staff>
      </note>
      <note default-x="138.27" default-y="-20">
        <chord />
        <pitch>
          <step>B</step>
          <octave>5</octave>
        </pitch>
        <duration>15120</duration>
        <voice>1</voice>
        <type>quarter</type>
        <dot />
        <stem>up</stem>
        <staff>1</staff>
      </note>
      <note default-x="138.27" default-y="-5">
        <chord />
        <pitch>
          <step>E</step>
          <octave>6</octave>
        </pitch>
        <duration>15120</duration>
        <voice>1</voice>
        <type>quarter</type>
        <dot />
        <stem>up</stem>
        <staff>1</staff>
      </note>
      <backup>
        <duration>30240</duration>
      </backup>
      <note print-object="no" print-spacing="yes">
        <rest measure="yes" />
        <duration>30240</duration>
        <voice>6</voice>
        <staff>2</staff>
      </note>
      <backup>
        <duration>30240</duration>
      </backup>
      <note default-x="36.72" default-y="-242.74">
        <pitch>
          <step>B</step>
          <octave>1</octave>
        </pitch>
        <duration>5040</duration>
        <voice>9</voice>
        <type>eighth</type>
        <stem>up</stem>
        <staff>2</staff>
      </note>
      <note default-x="36.72" default-y="-207.74">
        <chord />
        <pitch>
          <step>B</step>
          <octave>2</octave>
        </pitch>
        <duration>5040</duration>
        <voice>9</voice>
        <type>eighth</type>
        <stem>up</stem>
        <staff>2</staff>
      </note>
      <note default-x="70.57" default-y="-187.74">
        <pitch>
          <step>F</step>
          <alter>1</alter>
          <octave>3</octave>
        </pitch>
        <duration>5040</duration>
        <voice>9</voice>
        <type>eighth</type>
        <stem>up</stem>
        <staff>2</staff>
        <beam number="1">begin</beam>
      </note>
      <note default-x="70.57" default-y="-172.74">
        <chord />
        <pitch>
          <step>B</step>
          <octave>3</octave>
        </pitch>
        <duration>5040</duration>
        <voice>9</voice>
        <type>eighth</type>
        <stem>up</stem>
        <staff>2</staff>
      </note>
      <note default-x="70.57" default-y="-162.74">
        <chord />
        <pitch>
          <step>D</step>
          <octave>4</octave>
        </pitch>
        <duration>5040</duration>
        <voice>9</voice>
        <type>eighth</type>
        <stem>up</stem>
        <staff>2</staff>
      </note>
      <note default-x="104.42" default-y="-187.74">
        <pitch>
          <step>F</step>
          <alter>1</alter>
          <octave>3</octave>
        </pitch>
        <duration>5040</duration>
        <voice>9</voice>
        <type>eighth</type>
        <stem>up</stem>
        <staff>2</staff>
        <beam number="1">end</beam>
      </note>
      <note default-x="104.42" default-y="-172.74">
        <chord />
        <pitch>
          <step>B</step>
          <octave>3</octave>
        </pitch>
        <duration>5040</duration>
        <voice>9</voice>
        <type>eighth</type>
        <stem>up</stem>
        <staff>2</staff>
      </note>
      <note default-x="104.42" default-y="-162.74">
        <chord />
        <pitch>
          <step>D</step>
          <octave>4</octave>
        </pitch>
        <duration>5040</duration>
        <voice>9</voice>
        <type>eighth</type>
        <stem>up</stem>
        <staff>2</staff>
      </note>
      <note default-x="138.27" default-y="-227.74">
        <pitch>
          <step>E</step>
          <octave>2</octave>
        </pitch>
        <duration>5040</duration>
        <voice>9</voice>
        <type>eighth</type>
        <stem>up</stem>
        <staff>2</staff>
      </note>
      <note default-x="138.27" default-y="-192.74">
        <chord />
        <pitch>
          <step>E</step>
          <octave>3</octave>
        </pitch>
        <duration>5040</duration>
        <voice>9</voice>
        <type>eighth</type>
        <stem>up</stem>
        <staff>2</staff>
      </note>
      <note default-x="182.78" default-y="-182.74">
        <pitch>
          <step>G</step>
          <alter>1</alter>
          <octave>3</octave>
        </pitch>
        <duration>5040</duration>
        <voice>9</voice>
        <type>eighth</type>
        <accidental>sharp</accidental>
        <stem>up</stem>
        <staff>2</staff>
        <beam number="1">begin</beam>
      </note>
      <note default-x="182.78" default-y="-172.74">
        <chord />
        <pitch>
          <step>B</step>
          <octave>3</octave>
        </pitch>
        <duration>5040</duration>
        <voice>9</voice>
        <type>eighth</type>
        <stem>up</stem>
        <staff>2</staff>
      </note>
      <note default-x="182.78" default-y="-157.74">
        <chord />
        <pitch>
          <step>E</step>
          <octave>4</octave>
        </pitch>
        <duration>5040</duration>
        <voice>9</voice>
        <type>eighth</type>
        <stem>up</stem>
        <staff>2</staff>
      </note>
      <note default-x="216.63" default-y="-182.74">
        <pitch>
          <step>G</step>
          <alter>1</alter>
          <octave>3</octave>
        </pitch>
        <duration>5040</duration>
        <voice>9</voice>
        <type>eighth</type>
        <stem>up</stem>
        <staff>2</staff>
        <beam number="1">end</beam>
      </note>
      <note default-x="216.63" default-y="-172.74">
        <chord />
        <pitch>
          <step>B</step>
          <octave>3</octave>
        </pitch>
        <duration>5040</duration>
        <voice>9</voice>
        <type>eighth</type>
        <stem>up</stem>
        <staff>2</staff>
      </note>
      <note default-x="216.63" default-y="-157.74">
        <chord />
        <pitch>
          <step>E</step>
          <octave>4</octave>
        </pitch>
        <duration>5040</duration>
        <voice>9</voice>
        <type>eighth</type>
        <stem>up</stem>
        <staff>2</staff>
      </note>
    </measure>
    <!--======================== Measure 567 =========================-->
    <measure number="567" width="208.15">
      <note default-x="26.54" default-y="-25">
        <pitch>
          <step>A</step>
          <octave>4</octave>
        </pitch>
        <duration>15120</duration>
        <voice>1</voice>
        <type>quarter</type>
        <dot />
        <stem>down</stem>
        <staff>1</staff>
        <lyric default-x="8.86" default-y="-86.26" name="1" number="1" relative-y="-30">
          <syllabic>end</syllabic>
          <text>teilt;</text>
        </lyric>
      </note>
      <note default-x="26.54" default-y="-15">
        <chord />
        <pitch>
          <step>C</step>
          <alter>1</alter>
          <octave>5</octave>
        </pitch>
        <duration>15120</duration>
        <voice>1</voice>
        <type>quarter</type>
        <dot />
        <stem>down</stem>
        <staff>1</staff>
      </note>
      <note default-x="26.54" default-y="-5">
        <chord />
        <pitch>
          <step>E</step>
          <octave>5</octave>
        </pitch>
        <duration>15120</duration>
        <voice>1</voice>
        <type>quarter</type>
        <dot />
        <stem>down</stem>
        <staff>1</staff>
      </note>
      <note default-x="26.54" default-y="10">
        <chord />
        <pitch>
          <step>A</step>
          <octave>5</octave>
        </pitch>
        <duration>15120</duration>
        <voice>1</voice>
        <type>quarter</type>
        <dot />
        <stem>down</stem>
        <staff>1</staff>
      </note>
      <direction placement="below">
        <direction-type>
          <dynamics default-x="3.25" default-y="-59.01" relative-y="-25">
            <sf />
          </dynamics>
        </direction-type>
        <staff>1</staff>
        <sound dynamics="107" />
      </direction>
      <note default-x="116.44" default-y="-35">
        <pitch>
          <step>F</step>
          <alter>1</alter>
          <octave>5</octave>
        </pitch>
        <duration>15120</duration>
        <tie type="start" />
        <voice>1</voice>
        <type>quarter</type>
        <dot />
        <stem>down</stem>
        <staff>1</staff>
        <notations>
          <tied type="start" />
          <articulations>
            <strong-accent type="up" />
          </articulations>
        </notations>
        <lyric default-y="-86.26" name="1" number="1" relative-y="-30">
          <syllabic>begin</syllabic>
          <text>al</text>
        </lyric>
      </note>
      <note default-x="116.44" default-y="-25">
        <chord />
        <pitch>
          <step>A</step>
          <octave>5</octave>
        </pitch>
        <duration>15120</duration>
        <tie type="start" />
        <voice>1</voice>
        <type>quarter</type>
        <dot />
        <stem>down</stem>
        <staff>1</staff>
        <notations>
          <tied type="start" />
        </notations>
      </note>
      <note default-x="116.44" default-y="-10">
        <chord />
        <pitch>
          <step>D</step>
          <octave>6</octave>
        </pitch>
        <duration>15120</duration>
        <tie type="start" />
        <voice>1</voice>
        <type>quarter</type>
        <dot />
        <stem>down</stem>
        <staff>1</staff>
        <notations>
          <tied type="start" />
        </notations>
      </note>
      <note default-x="116.44" default-y="0">
        <chord />
        <pitch>
          <step>F</step>
          <alter>1</alter>
          <octave>6</octave>
        </pitch>
        <duration>15120</duration>
        <tie type="start" />
        <voice>1</voice>
        <type>quarter</type>
        <dot />
        <stem>down</stem>
        <staff>1</staff>
        <notations>
          <tied type="start" />
        </notations>
      </note>
      <backup>
        <duration>30240</duration>
      </backup>
      <note print-object="no" print-spacing="yes">
        <rest measure="yes" />
        <duration>30240</duration>
        <voice>6</voice>
        <staff>2</staff>
      </note>
      <backup>
        <duration>30240</duration>
      </backup>
      <note default-x="26.54" default-y="-212.74">
        <pitch>
          <step>A</step>
          <octave>2</octave>
        </pitch>
        <duration>5040</duration>
        <voice>9</voice>
        <type>eighth</type>
        <stem>down</stem>
        <staff>2</staff>
      </note>
      <note default-x="26.54" default-y="-177.74">
        <chord />
        <pitch>
          <step>A</step>
          <octave>3</octave>
        </pitch>
        <duration>5040</duration>
        <voice>9</voice>
        <type>eighth</type>
        <stem>down</stem>
        <staff>2</staff>
      </note>
      <note default-x="56.51" default-y="-177.74">
        <pitch>
          <step>A</step>
          <octave>3</octave>
        </pitch>
        <duration>5040</duration>
        <voice>9</voice>
        <type>eighth</type>
        <stem>up</stem>
        <staff>2</staff>
        <beam number="1">begin</beam>
      </note>
      <note default-x="56.51" default-y="-167.74">
        <chord />
        <pitch>
          <step>C</step>
          <alter>1</alter>
          <octave>4</octave>
        </pitch>
        <duration>5040</duration>
        <voice>9</voice>
        <type>eighth</type>
        <stem>up</stem>
        <staff>2</staff>
      </note>
      <note default-x="56.51" default-y="-157.74">
        <chord />
        <pitch>
          <step>E</step>
          <octave>4</octave>
        </pitch>
        <duration>5040</duration>
        <voice>9</voice>
        <type>eighth</type>
        <stem>up</stem>
        <staff>2</staff>
      </note>
      <note default-x="86.48" default-y="-177.74">
        <pitch>
          <step>A</step>
          <octave>3</octave>
        </pitch>
        <duration>5040</duration>
        <voice>9</voice>
        <type>eighth</type>
        <stem>up</stem>
        <staff>2</staff>
        <beam number="1">end</beam>
      </note>
      <note default-x="86.48" default-y="-167.74">
        <chord />
        <pitch>
          <step>C</step>
          <alter>1</alter>
          <octave>4</octave>
        </pitch>
        <duration>5040</duration>
        <voice>9</voice>
        <type>eighth</type>
        <stem>up</stem>
        <staff>2</staff>
      </note>
      <note default-x="86.48" default-y="-157.74">
        <chord />
        <pitch>
          <step>E</step>
          <octave>4</octave>
        </pitch>
        <duration>5040</duration>
        <voice>9</voice>
        <type>eighth</type>
        <stem>up</stem>
        <staff>2</staff>
      </note>
      <note default-x="116.44" default-y="-247.74">
        <pitch>
          <step>A</step>
          <octave>1</octave>
        </pitch>
        <duration>5040</duration>
        <voice>9</voice>
        <type>eighth</type>
        <stem>up</stem>
        <staff>2</staff>
      </note>
      <note default-x="116.44" default-y="-212.74">
        <chord />
        <pitch>
          <step>A</step>
          <octave>2</octave>
        </pitch>
        <duration>5040</duration>
        <voice>9</voice>
        <type>eighth</type>
        <stem>up</stem>
        <staff>2</staff>
      </note>
      <note default-x="146.41" default-y="-187.74">
        <pitch>
          <step>F</step>
          <alter>1</alter>
          <octave>3</octave>
        </pitch>
        <duration>5040</duration>
        <voice>9</voice>
        <type>eighth</type>
        <stem>up</stem>
        <staff>2</staff>
        <beam number="1">begin</beam>
      </note>
      <note default-x="146.41" default-y="-162.74">
        <chord />
        <pitch>
          <step>D</step>
          <octave>4</octave>
        </pitch>
        <duration>5040</duration>
        <voice>9</voice>
        <type>eighth</type>
        <stem>up</stem>
        <staff>2</staff>
      </note>
      <note default-x="146.41" default-y="-152.74">
        <chord />
        <pitch>
          <step>F</step>
          <alter>1</alter>
          <octave>4</octave>
        </pitch>
        <duration>5040</duration>
        <voice>9</voice>
        <type>eighth</type>
        <stem>up</stem>
        <staff>2</staff>
      </note>
      <note default-x="176.38" default-y="-187.74">
        <pitch>
          <step>F</step>
          <alter>1</alter>
          <octave>3</octave>
        </pitch>
        <duration>5040</duration>
        <voice>9</voice>
        <type>eighth</type>
        <stem>up</stem>
        <staff>2</staff>
        <beam number="1">end</beam>
      </note>
      <note default-x="176.38" default-y="-162.74">
        <chord />
        <pitch>
          <step>D</step>
          <octave>4</octave>
        </pitch>
        <duration>5040</duration>
        <voice>9</voice>
        <type>eighth</type>
        <stem>up</stem>
        <staff>2</staff>
      </note>
      <note default-x="176.38" default-y="-152.74">
        <chord />
        <pitch>
          <step>F</step>
          <alter>1</alter>
          <octave>4</octave>
        </pitch>
        <duration>5040</duration>
        <voice>9</voice>
        <type>eighth</type>
        <stem>up</stem>
        <staff>2</staff>
      </note>
    </measure>
    <!--======================== Measure 568 =========================-->
    <measure number="568" width="278.98">
      <print new-system="yes">
        <system-layout>
          <system-margins>
            <left-margin>0</left-margin>
            <right-margin>0</right-margin>
          </system-margins>
          <system-distance>150</system-distance>
        </system-layout>
      </print>
      <note default-x="94.62" default-y="-35">
        <pitch>
          <step>F</step>
          <alter>1</alter>
          <octave>5</octave>
        </pitch>
        <duration>15120</duration>
        <tie type="stop" />
        <voice>1</voice>
        <type>quarter</type>
        <dot />
        <stem>down</stem>
        <staff>1</staff>
        <notations>
          <tied type="stop" />
        </notations>
      </note>
      <note default-x="94.62" default-y="-25">
        <chord />
        <pitch>
          <step>A</step>
          <octave>5</octave>
        </pitch>
        <duration>15120</duration>
        <tie type="stop" />
        <voice>1</voice>
        <type>quarter</type>
        <dot />
        <stem>down</stem>
        <staff>1</staff>
        <notations>
          <tied type="stop" />
        </notations>
      </note>
      <note default-x="94.62" default-y="-10">
        <chord />
        <pitch>
          <step>D</step>
          <octave>6</octave>
        </pitch>
        <duration>15120</duration>
        <tie type="stop" />
        <voice>1</voice>
        <type>quarter</type>
        <dot />
        <stem>down</stem>
        <staff>1</staff>
        <notations>
          <tied type="stop" />
        </notations>
      </note>
      <note default-x="94.62" default-y="0">
        <chord />
        <pitch>
          <step>F</step>
          <alter>1</alter>
          <octave>6</octave>
        </pitch>
        <duration>15120</duration>
        <tie type="stop" />
        <voice>1</voice>
        <type>quarter</type>
        <dot />
        <stem>down</stem>
        <staff>1</staff>
        <notations>
          <tied type="stop" />
        </notations>
      </note>
      <note default-x="186.44" default-y="-35">
        <pitch>
          <step>F</step>
          <alter>1</alter>
          <octave>5</octave>
        </pitch>
        <duration>15120</duration>
        <voice>1</voice>
        <type>quarter</type>
        <dot />
        <stem>down</stem>
        <staff>1</staff>
        <lyric default-x="6.5" default-y="-57.79" name="1" number="1" relative-y="-30">
          <syllabic>end</syllabic>
          <text>le</text>
        </lyric>
      </note>
      <note default-x="186.44" default-y="-25">
        <chord />
        <pitch>
          <step>A</step>
          <octave>5</octave>
        </pitch>
        <duration>15120</duration>
        <voice>1</voice>
        <type>quarter</type>
        <dot />
        <stem>down</stem>
        <staff>1</staff>
      </note>
      <note default-x="186.44" default-y="-10">
        <chord />
        <pitch>
          <step>D</step>
          <octave>6</octave>
        </pitch>
        <duration>15120</duration>
        <voice>1</voice>
        <type>quarter</type>
        <dot />
        <stem>down</stem>
        <staff>1</staff>
      </note>
      <note default-x="186.44" default-y="0">
        <chord />
        <pitch>
          <step>F</step>
          <alter>1</alter>
          <octave>6</octave>
        </pitch>
        <duration>15120</duration>
        <voice>1</voice>
        <type>quarter</type>
        <dot />
        <stem>down</stem>
        <staff>1</staff>
      </note>
      <backup>
        <duration>30240</duration>
      </backup>
      <attributes>
        <staff-details print-object="yes" />
      </attributes>
      <note print-object="no" print-spacing="yes">
        <rest measure="yes" />
        <duration>30240</duration>
        <voice>6</voice>
        <staff>2</staff>
      </note>
      <backup>
        <duration>30240</duration>
      </backup>
      <note default-x="94.62" default-y="-195.05">
        <pitch>
          <step>D</step>
          <octave>2</octave>
        </pitch>
        <duration>5040</duration>
        <voice>9</voice>
        <type>eighth</type>
        <stem>up</stem>
        <staff>2</staff>
      </note>
      <note default-x="94.62" default-y="-160.05">
        <chord />
        <pitch>
          <step>D</step>
          <octave>3</octave>
        </pitch>
        <duration>5040</duration>
        <voice>9</voice>
        <type>eighth</type>
        <stem>up</stem>
        <staff>2</staff>
      </note>
      <note default-x="124.86" default-y="-160.05">
        <pitch>
          <step>D</step>
          <octave>3</octave>
        </pitch>
        <duration>5040</duration>
        <voice>9</voice>
        <type>eighth</type>
        <stem>down</stem>
        <staff>2</staff>
        <beam number="1">begin</beam>
      </note>
      <note default-x="124.86" default-y="-125.05">
        <chord />
        <pitch>
          <step>D</step>
          <octave>4</octave>
        </pitch>
        <duration>5040</duration>
        <voice>9</voice>
        <type>eighth</type>
        <stem>down</stem>
        <staff>2</staff>
      </note>
      <note default-x="156.2" default-y="-165.05">
        <pitch>
          <step>C</step>
          <alter>0</alter>
          <octave>3</octave>
        </pitch>
        <duration>5040</duration>
        <voice>9</voice>
        <type>eighth</type>
        <accidental>natural</accidental>
        <stem>down</stem>
        <staff>2</staff>
        <beam number="1">end</beam>
      </note>
      <note default-x="156.2" default-y="-130.05">
        <chord />
        <pitch>
          <step>C</step>
          <alter>0</alter>
          <octave>4</octave>
        </pitch>
        <duration>5040</duration>
        <voice>9</voice>
        <type>eighth</type>
        <accidental>natural</accidental>
        <stem>down</stem>
        <staff>2</staff>
      </note>
      <note default-x="186.44" default-y="-170.05">
        <pitch>
          <step>B</step>
          <octave>2</octave>
        </pitch>
        <duration>5040</duration>
        <voice>9</voice>
        <type>eighth</type>
        <stem>down</stem>
        <staff>2</staff>
        <beam number="1">begin</beam>
      </note>
      <note default-x="186.44" default-y="-135.05">
        <chord />
        <pitch>
          <step>B</step>
          <octave>3</octave>
        </pitch>
        <duration>5040</duration>
        <voice>9</voice>
        <type>eighth</type>
        <stem>down</stem>
        <staff>2</staff>
      </note>
      <note default-x="216.69" default-y="-175.05">
        <pitch>
          <step>A</step>
          <octave>2</octave>
        </pitch>
        <duration>5040</duration>
        <voice>9</voice>
        <type>eighth</type>
        <stem>down</stem>
        <staff>2</staff>
        <beam number="1">continue</beam>
      </note>
      <note default-x="216.69" default-y="-140.05">
        <chord />
        <pitch>
          <step>A</step>
          <octave>3</octave>
        </pitch>
        <duration>5040</duration>
        <voice>9</voice>
        <type>eighth</type>
        <stem>down</stem>
        <staff>2</staff>
      </note>
      <note default-x="246.93" default-y="-180.05">
        <pitch>
          <step>G</step>
          <octave>2</octave>
        </pitch>
        <duration>5040</duration>
        <voice>9</voice>
        <type>eighth</type>
        <stem>down</stem>
        <staff>2</staff>
        <beam number="1">end</beam>
      </note>
      <note default-x="246.93" default-y="-145.05">
        <chord />
        <pitch>
          <step>G</step>
          <octave>3</octave>
        </pitch>
        <duration>5040</duration>
        <voice>9</voice>
        <type>eighth</type>
        <stem>down</stem>
        <staff>2</staff>
      </note>
    </measure>
  </part>
</score-partwise>