<?xml version="1.0" encoding="utf-8"?>
<!DOCTYPE score-partwise  PUBLIC "-//Recordare//DTD MusicXML 3.1 Partwise//EN" "http://www.musicxml.org/dtds/partwise.dtd">
<score-partwise version="3.1">
  <work>
    <work-title>Symphony No.40 in Gm, K550</work-title>
  </work>
  <movement-title>2.mxl</movement-title>
  <identification>
    <creator type="composer">W.A.Mozart</creator>
    <rights>Symphony No.40 in Gm, K550</rights>
    <encoding>
      <encoding-date>2026-03-11</encoding-date>
      <software>music21 v.8.3.0</software>
      <software>MuseScore 2.0.2</software>
      <supports attribute="new-system" element="print" type="yes" value="yes" />
      <supports attribute="new-page" element="print" type="yes" value="yes" />
    </encoding>
  </identification>
  <defaults>
    <scaling>
      <millimeters>7</millimeters>
      <tenths>40</tenths>
    </scaling>
  </defaults>
  <part-list>
    <score-part id="P1">
      <part-name>ピアノ</part-name>
      <part-abbreviation>Pno.</part-abbreviation>
      <score-instrument id="I4b029f2eb6228c9dc535e1787686bb8f">
        <instrument-name>ピアノ</instrument-name>
      </score-instrument>
    </score-part>
  </part-list>
  <!--=========================== Part 1 ===========================-->
  <part id="P1">
    <!--======================== Measure 193 =========================-->
    <measure number="193" width="248.52">
      <attributes>
        <divisions>10080</divisions>
        <key>
          <fifths>-2</fifths>
        </key>
        <time symbol="cut">
          <beats>2</beats>
          <beat-type>2</beat-type>
        </time>
        <staves>2</staves>
        <clef number="1">
          <sign>G</sign>
          <line>2</line>
        </clef>
        <clef number="2">
          <sign>G</sign>
          <line>2</line>
        </clef>
      </attributes>
      <note default-x="18.2" default-y="10" dynamics="100.00">
        <pitch>
          <step>A</step>
          <alter>-1</alter>
          <octave>5</octave>
        </pitch>
        <duration>10080</duration>
        <voice>1</voice>
        <type>quarter</type>
        <accidental>flat</accidental>
        <stem>down</stem>
        <staff>1</staff>
        <notations>
          <articulations>
            <staccato />
          </articulations>
        </notations>
      </note>
      <note default-x="78.43" default-y="20" dynamics="100.00">
        <pitch>
          <step>C</step>
          <octave>6</octave>
        </pitch>
        <duration>10080</duration>
        <voice>1</voice>
        <type>quarter</type>
        <stem>down</stem>
        <staff>1</staff>
        <notations>
          <articulations>
            <staccato />
          </articulations>
        </notations>
      </note>
      <note default-x="134.6" default-y="30" dynamics="100.00">
        <pitch>
          <step>E</step>
          <alter>-1</alter>
          <octave>6</octave>
        </pitch>
        <duration>10080</duration>
        <voice>1</voice>
        <type>quarter</type>
        <stem>down</stem>
        <staff>1</staff>
        <notations>
          <articulations>
            <staccato />
          </articulations>
        </notations>
      </note>
      <note>
        <rest />
        <duration>10080</duration>
        <voice>1</voice>
        <type>quarter</type>
        <staff>1</staff>
      </note>
      <backup>
        <duration>40320</duration>
      </backup>
      <note default-x="18.2" default-y="-135" dynamics="83.33">
        <pitch>
          <step>E</step>
          <alter>-1</alter>
          <octave>4</octave>
        </pitch>
        <duration>5040</duration>
        <voice>6</voice>
        <type>eighth</type>
        <stem>up</stem>
        <staff>2</staff>
        <beam number="1">begin</beam>
      </note>
      <note default-x="50.35" default-y="-120" dynamics="83.33">
        <pitch>
          <step>A</step>
          <alter>-1</alter>
          <octave>4</octave>
        </pitch>
        <duration>5040</duration>
        <voice>6</voice>
        <type>eighth</type>
        <accidental>flat</accidental>
        <stem>up</stem>
        <staff>2</staff>
        <beam number="1">continue</beam>
      </note>
      <note default-x="78.43" default-y="-135" dynamics="83.33">
        <pitch>
          <step>E</step>
          <alter>-1</alter>
          <octave>4</octave>
        </pitch>
        <duration>5040</duration>
        <voice>6</voice>
        <type>eighth</type>
        <stem>up</stem>
        <staff>2</staff>
        <beam number="1">continue</beam>
      </note>
      <note default-x="106.52" default-y="-120" dynamics="83.33">
        <pitch>
          <step>A</step>
          <alter>-1</alter>
          <octave>4</octave>
        </pitch>
        <duration>5040</duration>
        <voice>6</voice>
        <type>eighth</type>
        <stem>up</stem>
        <staff>2</staff>
        <beam number="1">end</beam>
      </note>
      <note default-x="134.6" default-y="-135" dynamics="83.33">
        <pitch>
          <step>E</step>
          <alter>-1</alter>
          <octave>4</octave>
        </pitch>
        <duration>5040</duration>
        <voice>6</voice>
        <type>eighth</type>
        <stem>up</stem>
        <staff>2</staff>
        <beam number="1">begin</beam>
      </note>
      <note default-x="162.68" default-y="-120" dynamics="83.33">
        <pitch>
          <step>A</step>
          <alter>-1</alter>
          <octave>4</octave>
        </pitch>
        <duration>5040</duration>
        <voice>6</voice>
        <type>eighth</type>
        <stem>up</stem>
        <staff>2</staff>
        <beam number="1">continue</beam>
      </note>
      <note default-x="190.76" default-y="-135" dynamics="83.33">
        <pitch>
          <step>E</step>
          <alter>-1</alter>
          <octave>4</octave>
        </pitch>
        <duration>5040</duration>
        <voice>6</voice>
        <type>eighth</type>
        <stem>up</stem>
        <staff>2</staff>
        <beam number="1">continue</beam>
      </note>
      <note default-x="218.84" default-y="-120" dynamics="83.33">
        <pitch>
          <step>A</step>
          <alter>-1</alter>
          <octave>4</octave>
        </pitch>
        <duration>5040</duration>
        <voice>6</voice>
        <type>eighth</type>
        <stem>up</stem>
        <staff>2</staff>
        <beam number="1">end</beam>
      </note>
      <backup>
        <duration>40320</duration>
      </backup>
      <note default-x="14.89" default-y="-145" dynamics="83.33">
        <pitch>
          <step>C</step>
          <octave>4</octave>
        </pitch>
        <duration>40320</duration>
        <voice>7</voice>
        <type>whole</type>
        <staff>2</staff>
      </note>
    </measure>
    <!--======================== Measure 194 =========================-->
    <measure number="194" width="287.18">
      <print new-system="yes">
        <system-layout>
          <system-margins>
            <left-margin>21</left-margin>
            <right-margin>0</right-margin>
          </system-margins>
          <system-distance>118.93</system-distance>
        </system-layout>
      </print>
      <note default-x="78.1" default-y="5" dynamics="100.00">
        <pitch>
          <step>G</step>
          <octave>5</octave>
        </pitch>
        <duration>10080</duration>
        <voice>1</voice>
        <type>quarter</type>
        <stem>down</stem>
        <staff>1</staff>
        <notations>
          <articulations>
            <staccato />
          </articulations>
        </notations>
      </note>
      <note default-x="129.97" default-y="15" dynamics="100.00">
        <pitch>
          <step>B</step>
          <alter>-1</alter>
          <octave>5</octave>
        </pitch>
        <duration>10080</duration>
        <voice>1</voice>
        <type>quarter</type>
        <stem>down</stem>
        <staff>1</staff>
        <notations>
          <articulations>
            <staccato />
          </articulations>
        </notations>
      </note>
      <note default-x="181.84" default-y="30" dynamics="100.00">
        <pitch>
          <step>E</step>
          <alter>-1</alter>
          <octave>6</octave>
        </pitch>
        <duration>10080</duration>
        <voice>1</voice>
        <type>quarter</type>
        <stem>down</stem>
        <staff>1</staff>
        <notations>
          <articulations>
            <staccato />
          </articulations>
        </notations>
      </note>
      <note>
        <rest />
        <duration>5040</duration>
        <voice>1</voice>
        <type>eighth</type>
        <staff>1</staff>
      </note>
      <note default-x="259.64" default-y="5" dynamics="100.00">
        <pitch>
          <step>G</step>
          <octave>5</octave>
        </pitch>
        <duration>5040</duration>
        <voice>1</voice>
        <type>eighth</type>
        <stem>down</stem>
        <staff>1</staff>
      </note>
      <backup>
        <duration>40320</duration>
      </backup>
      <attributes>
        <staff-details print-object="yes" />
      </attributes>
      <note default-x="78.1" default-y="-144.24" dynamics="83.33">
        <pitch>
          <step>E</step>
          <alter>-1</alter>
          <octave>4</octave>
        </pitch>
        <duration>5040</duration>
        <voice>6</voice>
        <type>eighth</type>
        <stem>up</stem>
        <staff>2</staff>
        <beam number="1">begin</beam>
      </note>
      <note default-x="104.04" default-y="-134.24" dynamics="83.33">
        <pitch>
          <step>G</step>
          <octave>4</octave>
        </pitch>
        <duration>5040</duration>
        <voice>6</voice>
        <type>eighth</type>
        <stem>up</stem>
        <staff>2</staff>
        <beam number="1">continue</beam>
      </note>
      <note default-x="129.97" default-y="-144.24" dynamics="83.33">
        <pitch>
          <step>E</step>
          <alter>-1</alter>
          <octave>4</octave>
        </pitch>
        <duration>5040</duration>
        <voice>6</voice>
        <type>eighth</type>
        <stem>up</stem>
        <staff>2</staff>
        <beam number="1">continue</beam>
      </note>
      <note default-x="155.9" default-y="-134.24" dynamics="83.33">
        <pitch>
          <step>G</step>
          <octave>4</octave>
        </pitch>
        <duration>5040</duration>
        <voice>6</voice>
        <type>eighth</type>
        <stem>up</stem>
        <staff>2</staff>
        <beam number="1">end</beam>
      </note>
      <note default-x="181.84" default-y="-144.24" dynamics="83.33">
        <pitch>
          <step>E</step>
          <alter>-1</alter>
          <octave>4</octave>
        </pitch>
        <duration>5040</duration>
        <voice>6</voice>
        <type>eighth</type>
        <stem>up</stem>
        <staff>2</staff>
        <beam number="1">begin</beam>
      </note>
      <note default-x="207.77" default-y="-134.24" dynamics="83.33">
        <pitch>
          <step>G</step>
          <octave>4</octave>
        </pitch>
        <duration>5040</duration>
        <voice>6</voice>
        <type>eighth</type>
        <stem>up</stem>
        <staff>2</staff>
        <beam number="1">continue</beam>
      </note>
      <note default-x="233.71" default-y="-144.24" dynamics="83.33">
        <pitch>
          <step>E</step>
          <alter>-1</alter>
          <octave>4</octave>
        </pitch>
        <duration>5040</duration>
        <voice>6</voice>
        <type>eighth</type>
        <stem>up</stem>
        <staff>2</staff>
        <beam number="1">continue</beam>
      </note>
      <note default-x="259.64" default-y="-134.24" dynamics="83.33">
        <pitch>
          <step>G</step>
          <octave>4</octave>
        </pitch>
        <duration>5040</duration>
        <voice>6</voice>
        <type>eighth</type>
        <stem>up</stem>
        <staff>2</staff>
        <beam number="1">end</beam>
      </note>
      <backup>
        <duration>40320</duration>
      </backup>
      <note default-x="74.79" default-y="-159.24" dynamics="83.33">
        <pitch>
          <step>B</step>
          <alter>-1</alter>
          <octave>3</octave>
        </pitch>
        <duration>40320</duration>
        <voice>7</voice>
        <type>whole</type>
        <staff>2</staff>
      </note>
    </measure>
    <!--======================== Measure 195 =========================-->
    <measure number="195" width="243.22">
      <note default-x="21.51" default-y="0" dynamics="100.00">
        <pitch>
          <step>F</step>
          <octave>5</octave>
        </pitch>
        <duration>10080</duration>
        <voice>1</voice>
        <type>quarter</type>
        <stem>down</stem>
        <staff>1</staff>
        <notations>
          <articulations>
            <staccato />
          </articulations>
        </notations>
      </note>
      <note default-x="76.53" default-y="10" dynamics="100.00">
        <pitch>
          <step>A</step>
          <alter>-1</alter>
          <octave>5</octave>
        </pitch>
        <duration>10080</duration>
        <voice>1</voice>
        <type>quarter</type>
        <accidental>flat</accidental>
        <stem>down</stem>
        <staff>1</staff>
        <notations>
          <articulations>
            <staccato />
          </articulations>
        </notations>
      </note>
      <note default-x="131.56" default-y="20" dynamics="100.00">
        <pitch>
          <step>C</step>
          <octave>6</octave>
        </pitch>
        <duration>10080</duration>
        <voice>1</voice>
        <type>quarter</type>
        <stem>down</stem>
        <staff>1</staff>
        <notations>
          <articulations>
            <staccato />
          </articulations>
        </notations>
      </note>
      <note default-x="186.59" default-y="0" dynamics="100.00">
        <pitch>
          <step>F</step>
          <octave>5</octave>
        </pitch>
        <duration>10080</duration>
        <voice>1</voice>
        <type>quarter</type>
        <stem>down</stem>
        <staff>1</staff>
        <notations>
          <articulations>
            <staccato />
          </articulations>
        </notations>
      </note>
      <backup>
        <duration>40320</duration>
      </backup>
      <note default-x="21.51" default-y="-154.24" dynamics="83.33">
        <pitch>
          <step>C</step>
          <octave>4</octave>
        </pitch>
        <duration>5040</duration>
        <voice>6</voice>
        <type>eighth</type>
        <stem>up</stem>
        <staff>2</staff>
        <beam number="1">begin</beam>
      </note>
      <note default-x="49.02" default-y="-139.24" dynamics="83.33">
        <pitch>
          <step>F</step>
          <octave>4</octave>
        </pitch>
        <duration>5040</duration>
        <voice>6</voice>
        <type>eighth</type>
        <stem>up</stem>
        <staff>2</staff>
        <beam number="1">continue</beam>
      </note>
      <note default-x="76.53" default-y="-154.24" dynamics="83.33">
        <pitch>
          <step>C</step>
          <octave>4</octave>
        </pitch>
        <duration>5040</duration>
        <voice>6</voice>
        <type>eighth</type>
        <stem>up</stem>
        <staff>2</staff>
        <beam number="1">continue</beam>
      </note>
      <note default-x="104.05" default-y="-139.24" dynamics="83.33">
        <pitch>
          <step>F</step>
          <octave>4</octave>
        </pitch>
        <duration>5040</duration>
        <voice>6</voice>
        <type>eighth</type>
        <stem>up</stem>
        <staff>2</staff>
        <beam number="1">end</beam>
      </note>
      <note default-x="131.56" default-y="-154.24" dynamics="83.33">
        <pitch>
          <step>C</step>
          <octave>4</octave>
        </pitch>
        <duration>5040</duration>
        <voice>6</voice>
        <type>eighth</type>
        <stem>up</stem>
        <staff>2</staff>
        <beam number="1">begin</beam>
      </note>
      <note default-x="159.08" default-y="-139.24" dynamics="83.33">
        <pitch>
          <step>F</step>
          <octave>4</octave>
        </pitch>
        <duration>5040</duration>
        <voice>6</voice>
        <type>eighth</type>
        <stem>up</stem>
        <staff>2</staff>
        <beam number="1">continue</beam>
      </note>
      <note default-x="186.59" default-y="-154.24" dynamics="83.33">
        <pitch>
          <step>C</step>
          <octave>4</octave>
        </pitch>
        <duration>5040</duration>
        <voice>6</voice>
        <type>eighth</type>
        <stem>up</stem>
        <staff>2</staff>
        <beam number="1">continue</beam>
      </note>
      <note default-x="214.1" default-y="-139.24" dynamics="83.33">
        <pitch>
          <step>F</step>
          <octave>4</octave>
        </pitch>
        <duration>5040</duration>
        <voice>6</voice>
        <type>eighth</type>
        <stem>up</stem>
        <staff>2</staff>
        <beam number="1">end</beam>
      </note>
      <backup>
        <duration>40320</duration>
      </backup>
      <note default-x="18.2" default-y="-164.24" dynamics="83.33">
        <pitch>
          <step>A</step>
          <alter>-1</alter>
          <octave>3</octave>
        </pitch>
        <duration>40320</duration>
        <voice>7</voice>
        <type>whole</type>
        <accidental>flat</accidental>
        <staff>2</staff>
      </note>
    </measure>
    <!--======================== Measure 196 =========================-->
    <measure number="196" width="292.48">
      <note default-x="45.4" default-y="-5" dynamics="100.00">
        <pitch>
          <step>E</step>
          <alter>0</alter>
          <octave>5</octave>
        </pitch>
        <duration>10080</duration>
        <voice>1</voice>
        <type>quarter</type>
        <accidental>natural</accidental>
        <stem>down</stem>
        <staff>1</staff>
        <notations>
          <articulations>
            <staccato />
          </articulations>
        </notations>
      </note>
      <note default-x="106.62" default-y="5" dynamics="100.00">
        <pitch>
          <step>G</step>
          <octave>5</octave>
        </pitch>
        <duration>10080</duration>
        <voice>1</voice>
        <type>quarter</type>
        <stem>down</stem>
        <staff>1</staff>
        <notations>
          <articulations>
            <staccato />
          </articulations>
        </notations>
      </note>
      <note default-x="167.85" default-y="15" dynamics="100.00">
        <pitch>
          <step>B</step>
          <alter>-1</alter>
          <octave>5</octave>
        </pitch>
        <duration>10080</duration>
        <voice>1</voice>
        <type>quarter</type>
        <stem>down</stem>
        <staff>1</staff>
        <notations>
          <articulations>
            <staccato />
          </articulations>
        </notations>
      </note>
      <note default-x="229.66" default-y="-10" dynamics="100.00">
        <pitch>
          <step>D</step>
          <alter>-1</alter>
          <octave>5</octave>
        </pitch>
        <duration>10080</duration>
        <voice>1</voice>
        <type>quarter</type>
        <accidental>flat</accidental>
        <stem>down</stem>
        <staff>1</staff>
        <notations>
          <articulations>
            <staccato />
          </articulations>
        </notations>
      </note>
      <backup>
        <duration>40320</duration>
      </backup>
      <attributes>
        <clef number="2">
          <sign>F</sign>
          <line>4</line>
        </clef>
      </attributes>
      <note default-x="45.4" default-y="-99.24" dynamics="83.33">
        <pitch>
          <step>B</step>
          <alter>-1</alter>
          <octave>3</octave>
        </pitch>
        <duration>5040</duration>
        <voice>6</voice>
        <type>eighth</type>
        <stem>up</stem>
        <staff>2</staff>
        <beam number="1">begin</beam>
      </note>
      <note default-x="76.01" default-y="-84.24" dynamics="83.33">
        <pitch>
          <step>E</step>
          <alter>0</alter>
          <octave>4</octave>
        </pitch>
        <duration>5040</duration>
        <voice>6</voice>
        <type>eighth</type>
        <accidental>natural</accidental>
        <stem>up</stem>
        <staff>2</staff>
        <beam number="1">continue</beam>
      </note>
      <note default-x="106.62" default-y="-99.24" dynamics="83.33">
        <pitch>
          <step>B</step>
          <alter>-1</alter>
          <octave>3</octave>
        </pitch>
        <duration>5040</duration>
        <voice>6</voice>
        <type>eighth</type>
        <stem>up</stem>
        <staff>2</staff>
        <beam number="1">continue</beam>
      </note>
      <note default-x="137.24" default-y="-84.24" dynamics="83.33">
        <pitch>
          <step>E</step>
          <octave>4</octave>
        </pitch>
        <duration>5040</duration>
        <voice>6</voice>
        <type>eighth</type>
        <stem>up</stem>
        <staff>2</staff>
        <beam number="1">end</beam>
      </note>
      <note default-x="167.85" default-y="-99.24" dynamics="83.33">
        <pitch>
          <step>B</step>
          <alter>-1</alter>
          <octave>3</octave>
        </pitch>
        <duration>5040</duration>
        <voice>6</voice>
        <type>eighth</type>
        <stem>up</stem>
        <staff>2</staff>
        <beam number="1">begin</beam>
      </note>
      <note default-x="199.05" default-y="-89.24" dynamics="83.33">
        <pitch>
          <step>D</step>
          <alter>-1</alter>
          <octave>4</octave>
        </pitch>
        <duration>5040</duration>
        <voice>6</voice>
        <type>eighth</type>
        <accidental>flat</accidental>
        <stem>up</stem>
        <staff>2</staff>
        <beam number="1">continue</beam>
      </note>
      <note default-x="229.66" default-y="-99.24" dynamics="83.33">
        <pitch>
          <step>B</step>
          <alter>-1</alter>
          <octave>3</octave>
        </pitch>
        <duration>5040</duration>
        <voice>6</voice>
        <type>eighth</type>
        <stem>up</stem>
        <staff>2</staff>
        <beam number="1">continue</beam>
      </note>
      <note default-x="260.27" default-y="-89.24" dynamics="83.33">
        <pitch>
          <step>D</step>
          <alter>-1</alter>
          <octave>4</octave>
        </pitch>
        <duration>5040</duration>
        <voice>6</voice>
        <type>eighth</type>
        <stem>up</stem>
        <staff>2</staff>
        <beam number="1">end</beam>
      </note>
      <backup>
        <duration>40320</duration>
      </backup>
      <note default-x="45.05" default-y="-109.24" dynamics="83.33">
        <pitch>
          <step>G</step>
          <octave>3</octave>
        </pitch>
        <duration>20160</duration>
        <voice>7</voice>
        <type>half</type>
        <stem>down</stem>
        <staff>2</staff>
      </note>
      <note default-x="167.5" default-y="-114.24" dynamics="83.33">
        <pitch>
          <step>F</step>
          <octave>3</octave>
        </pitch>
        <duration>20160</duration>
        <voice>7</voice>
        <type>half</type>
        <stem>down</stem>
        <staff>2</staff>
      </note>
    </measure>
    <!--======================== Measure 197 =========================-->
    <measure number="197" width="242.18">
      <note default-x="14.78" default-y="-15" dynamics="100.00">
        <pitch>
          <step>C</step>
          <octave>5</octave>
        </pitch>
        <duration>10080</duration>
        <voice>1</voice>
        <type>quarter</type>
        <stem>down</stem>
        <staff>1</staff>
        <notations>
          <articulations>
            <staccato />
          </articulations>
        </notations>
      </note>
      <note default-x="71.23" default-y="-5" dynamics="100.00">
        <pitch>
          <step>E</step>
          <alter>0</alter>
          <octave>5</octave>
        </pitch>
        <duration>10080</duration>
        <voice>1</voice>
        <type>quarter</type>
        <accidental>natural</accidental>
        <stem>down</stem>
        <staff>1</staff>
        <notations>
          <articulations>
            <staccato />
          </articulations>
        </notations>
      </note>
      <note default-x="127.68" default-y="5" dynamics="100.00">
        <pitch>
          <step>G</step>
          <octave>5</octave>
        </pitch>
        <duration>10080</duration>
        <voice>1</voice>
        <type>quarter</type>
        <stem>down</stem>
        <staff>1</staff>
        <notations>
          <articulations>
            <staccato />
          </articulations>
        </notations>
      </note>
      <note default-x="184.13" default-y="-20" dynamics="100.00">
        <pitch>
          <step>B</step>
          <alter>-1</alter>
          <octave>4</octave>
        </pitch>
        <duration>10080</duration>
        <voice>1</voice>
        <type>quarter</type>
        <stem>down</stem>
        <staff>1</staff>
        <notations>
          <articulations>
            <staccato />
          </articulations>
        </notations>
      </note>
      <backup>
        <duration>40320</duration>
      </backup>
      <note default-x="14.78" default-y="-109.24" dynamics="83.33">
        <pitch>
          <step>G</step>
          <octave>3</octave>
        </pitch>
        <duration>5040</duration>
        <voice>6</voice>
        <type>eighth</type>
        <stem>up</stem>
        <staff>2</staff>
        <beam number="1">begin</beam>
      </note>
      <note default-x="43" default-y="-94.24" dynamics="83.33">
        <pitch>
          <step>C</step>
          <octave>4</octave>
        </pitch>
        <duration>5040</duration>
        <voice>6</voice>
        <type>eighth</type>
        <stem>up</stem>
        <staff>2</staff>
        <beam number="1">continue</beam>
      </note>
      <note default-x="71.23" default-y="-109.24" dynamics="83.33">
        <pitch>
          <step>G</step>
          <octave>3</octave>
        </pitch>
        <duration>5040</duration>
        <voice>6</voice>
        <type>eighth</type>
        <stem>up</stem>
        <staff>2</staff>
        <beam number="1">continue</beam>
      </note>
      <note default-x="99.45" default-y="-94.24" dynamics="83.33">
        <pitch>
          <step>C</step>
          <octave>4</octave>
        </pitch>
        <duration>5040</duration>
        <voice>6</voice>
        <type>eighth</type>
        <stem>up</stem>
        <staff>2</staff>
        <beam number="1">end</beam>
      </note>
      <note default-x="127.68" default-y="-109.24" dynamics="83.33">
        <pitch>
          <step>G</step>
          <octave>3</octave>
        </pitch>
        <duration>5040</duration>
        <voice>6</voice>
        <type>eighth</type>
        <stem>up</stem>
        <staff>2</staff>
        <beam number="1">begin</beam>
      </note>
      <note default-x="155.9" default-y="-99.24" dynamics="83.33">
        <pitch>
          <step>B</step>
          <alter>-1</alter>
          <octave>3</octave>
        </pitch>
        <duration>5040</duration>
        <voice>6</voice>
        <type>eighth</type>
        <stem>up</stem>
        <staff>2</staff>
        <beam number="1">continue</beam>
      </note>
      <note default-x="184.13" default-y="-109.24" dynamics="83.33">
        <pitch>
          <step>G</step>
          <octave>3</octave>
        </pitch>
        <duration>5040</duration>
        <voice>6</voice>
        <type>eighth</type>
        <stem>up</stem>
        <staff>2</staff>
        <beam number="1">continue</beam>
      </note>
      <note default-x="212.36" default-y="-99.24" dynamics="83.33">
        <pitch>
          <step>B</step>
          <alter>-1</alter>
          <octave>3</octave>
        </pitch>
        <duration>5040</duration>
        <voice>6</voice>
        <type>eighth</type>
        <stem>up</stem>
        <staff>2</staff>
        <beam number="1">end</beam>
      </note>
      <backup>
        <duration>40320</duration>
      </backup>
      <note default-x="14.43" default-y="-119.24" dynamics="83.33">
        <pitch>
          <step>E</step>
          <alter>0</alter>
          <octave>3</octave>
        </pitch>
        <duration>20160</duration>
        <voice>7</voice>
        <type>half</type>
        <accidental>natural</accidental>
        <stem>down</stem>
        <staff>2</staff>
      </note>
      <note default-x="127.33" default-y="-129.24" dynamics="83.33">
        <pitch>
          <step>C</step>
          <octave>3</octave>
        </pitch>
        <duration>20160</duration>
        <voice>7</voice>
        <type>half</type>
        <stem>down</stem>
        <staff>2</staff>
      </note>
    </measure>
    <!--======================== Measure 198 =========================-->
    <measure number="198" width="307.88">
      <print new-page="yes">
        <system-layout>
          <system-margins>
            <left-margin>21</left-margin>
            <right-margin>0</right-margin>
          </system-margins>
          <top-system-distance>70</top-system-distance>
        </system-layout>
      </print>
      <note default-x="89.22" default-y="-25" dynamics="83.33">
        <pitch>
          <step>A</step>
          <alter>-1</alter>
          <octave>4</octave>
        </pitch>
        <duration>5040</duration>
        <voice>1</voice>
        <type>eighth</type>
        <accidental>flat</accidental>
        <stem>up</stem>
        <staff>1</staff>
        <beam number="1">begin</beam>
      </note>
      <note default-x="115.82" default-y="-35" dynamics="83.33">
        <pitch>
          <step>F</step>
          <octave>4</octave>
        </pitch>
        <duration>5040</duration>
        <voice>1</voice>
        <type>eighth</type>
        <stem>up</stem>
        <staff>1</staff>
        <beam number="1">continue</beam>
      </note>
      <note default-x="142.43" default-y="-15" dynamics="83.33">
        <pitch>
          <step>C</step>
          <octave>5</octave>
        </pitch>
        <duration>5040</duration>
        <voice>1</voice>
        <type>eighth</type>
        <stem>up</stem>
        <staff>1</staff>
        <beam number="1">continue</beam>
      </note>
      <note default-x="169.03" default-y="-25" dynamics="83.33">
        <pitch>
          <step>A</step>
          <alter>-1</alter>
          <octave>4</octave>
        </pitch>
        <duration>5040</duration>
        <voice>1</voice>
        <type>eighth</type>
        <stem>up</stem>
        <staff>1</staff>
        <beam number="1">end</beam>
      </note>
      <note default-x="195.63" default-y="0" dynamics="83.33">
        <pitch>
          <step>F</step>
          <octave>5</octave>
        </pitch>
        <duration>5040</duration>
        <voice>1</voice>
        <type>eighth</type>
        <stem>down</stem>
        <staff>1</staff>
        <beam number="1">begin</beam>
      </note>
      <note default-x="222.23" default-y="-15" dynamics="83.33">
        <pitch>
          <step>C</step>
          <octave>5</octave>
        </pitch>
        <duration>5040</duration>
        <voice>1</voice>
        <type>eighth</type>
        <stem>down</stem>
        <staff>1</staff>
        <beam number="1">continue</beam>
      </note>
      <note default-x="253.08" default-y="10" dynamics="83.33">
        <pitch>
          <step>A</step>
          <alter>-1</alter>
          <octave>5</octave>
        </pitch>
        <duration>5040</duration>
        <voice>1</voice>
        <type>eighth</type>
        <accidental>flat</accidental>
        <stem>down</stem>
        <staff>1</staff>
        <beam number="1">continue</beam>
      </note>
      <note default-x="279.68" default-y="0" dynamics="83.33">
        <pitch>
          <step>F</step>
          <octave>5</octave>
        </pitch>
        <duration>5040</duration>
        <voice>1</voice>
        <type>eighth</type>
        <stem>down</stem>
        <staff>1</staff>
        <beam number="1">end</beam>
      </note>
      <backup>
        <duration>40320</duration>
      </backup>
      <attributes>
        <staff-details print-object="yes" />
      </attributes>
      <note default-x="88.87" default-y="-85" dynamics="100.00">
        <pitch>
          <step>C</step>
          <octave>4</octave>
        </pitch>
        <duration>20160</duration>
        <voice>6</voice>
        <type>half</type>
        <stem>up</stem>
        <staff>2</staff>
      </note>
      <note default-x="195.28" default-y="-95" dynamics="100.00">
        <pitch>
          <step>A</step>
          <alter>-1</alter>
          <octave>3</octave>
        </pitch>
        <duration>20160</duration>
        <voice>6</voice>
        <type>half</type>
        <accidental>flat</accidental>
        <stem>up</stem>
        <staff>2</staff>
      </note>
      <backup>
        <duration>40320</duration>
      </backup>
      <note default-x="85.92" default-y="-105" dynamics="83.33">
        <pitch>
          <step>F</step>
          <octave>3</octave>
        </pitch>
        <duration>40320</duration>
        <voice>7</voice>
        <type>whole</type>
        <staff>2</staff>
      </note>
    </measure>
    <!--======================== Measure 199 =========================-->
    <measure number="199" width="261.44">
      <note default-x="14.43" default-y="-5" dynamics="83.33">
        <pitch>
          <step>E</step>
          <alter>0</alter>
          <octave>5</octave>
        </pitch>
        <duration>5040</duration>
        <voice>1</voice>
        <type>eighth</type>
        <accidental>natural</accidental>
        <stem>down</stem>
        <staff>1</staff>
        <beam number="1">begin</beam>
      </note>
      <note default-x="45.08" default-y="5" dynamics="83.33">
        <pitch>
          <step>G</step>
          <octave>5</octave>
        </pitch>
        <duration>5040</duration>
        <voice>1</voice>
        <type>eighth</type>
        <stem>down</stem>
        <staff>1</staff>
        <beam number="1">continue</beam>
      </note>
      <note default-x="75.73" default-y="20" dynamics="83.33">
        <pitch>
          <step>C</step>
          <octave>6</octave>
        </pitch>
        <duration>5040</duration>
        <voice>1</voice>
        <type>eighth</type>
        <stem>down</stem>
        <staff>1</staff>
        <beam number="1">continue</beam>
      </note>
      <note default-x="106.38" default-y="15" dynamics="83.33">
        <pitch>
          <step>B</step>
          <alter>-1</alter>
          <octave>5</octave>
        </pitch>
        <duration>5040</duration>
        <voice>1</voice>
        <type>eighth</type>
        <stem>down</stem>
        <staff>1</staff>
        <beam number="1">end</beam>
      </note>
      <note default-x="137.23" default-y="10" dynamics="83.33">
        <pitch>
          <step>A</step>
          <alter>-1</alter>
          <octave>5</octave>
        </pitch>
        <duration>5040</duration>
        <voice>1</voice>
        <type>eighth</type>
        <accidental>flat</accidental>
        <stem>down</stem>
        <staff>1</staff>
        <beam number="1">begin</beam>
      </note>
      <note default-x="167.88" default-y="5" dynamics="83.33">
        <pitch>
          <step>G</step>
          <octave>5</octave>
        </pitch>
        <duration>5040</duration>
        <voice>1</voice>
        <type>eighth</type>
        <stem>down</stem>
        <staff>1</staff>
        <beam number="1">continue</beam>
      </note>
      <note default-x="198.54" default-y="0" dynamics="83.33">
        <pitch>
          <step>F</step>
          <octave>5</octave>
        </pitch>
        <duration>5040</duration>
        <voice>1</voice>
        <type>eighth</type>
        <stem>down</stem>
        <staff>1</staff>
        <beam number="1">continue</beam>
      </note>
      <note default-x="229.19" default-y="-5" dynamics="83.33">
        <pitch>
          <step>E</step>
          <alter>-1</alter>
          <octave>5</octave>
        </pitch>
        <duration>5040</duration>
        <voice>1</voice>
        <type>eighth</type>
        <accidental>flat</accidental>
        <stem>down</stem>
        <staff>1</staff>
        <beam number="1">end</beam>
      </note>
      <backup>
        <duration>40320</duration>
      </backup>
      <note default-x="14.08" default-y="-120">
        <pitch>
          <step>C</step>
          <octave>3</octave>
        </pitch>
        <duration>35280</duration>
        <voice>2</voice>
        <type>half</type>
        <dot />
        <dot />
        <stem>down</stem>
        <staff>2</staff>
      </note>
      <note default-x="14.08" default-y="-100">
        <chord />
        <pitch>
          <step>G</step>
          <octave>3</octave>
        </pitch>
        <duration>35280</duration>
        <voice>2</voice>
        <type>half</type>
        <dot />
        <dot />
        <stem>down</stem>
        <staff>2</staff>
      </note>
      <note default-x="229.19" default-y="-85" dynamics="100.00">
        <pitch>
          <step>C</step>
          <octave>4</octave>
        </pitch>
        <duration>5040</duration>
        <voice>2</voice>
        <type>eighth</type>
        <stem>down</stem>
        <staff>2</staff>
      </note>
    </measure>
    <!--======================== Measure 200 =========================-->
    <measure number="200" width="242.29">
      <note default-x="16.2" default-y="-10" dynamics="83.33">
        <pitch>
          <step>D</step>
          <alter>-1</alter>
          <octave>5</octave>
        </pitch>
        <duration>5040</duration>
        <voice>1</voice>
        <type>eighth</type>
        <accidental>flat</accidental>
        <stem>down</stem>
        <staff>1</staff>
        <beam number="1">begin</beam>
      </note>
      <note default-x="43.86" default-y="0" dynamics="83.33">
        <pitch>
          <step>F</step>
          <octave>5</octave>
        </pitch>
        <duration>5040</duration>
        <voice>1</voice>
        <type>eighth</type>
        <stem>down</stem>
        <staff>1</staff>
        <beam number="1">continue</beam>
      </note>
      <note default-x="71.53" default-y="15" dynamics="83.33">
        <pitch>
          <step>B</step>
          <alter>-1</alter>
          <octave>5</octave>
        </pitch>
        <duration>5040</duration>
        <voice>1</voice>
        <type>eighth</type>
        <stem>down</stem>
        <staff>1</staff>
        <beam number="1">continue</beam>
      </note>
      <note default-x="102.37" default-y="10" dynamics="83.33">
        <pitch>
          <step>A</step>
          <alter>-1</alter>
          <octave>5</octave>
        </pitch>
        <duration>5040</duration>
        <voice>1</voice>
        <type>eighth</type>
        <accidental>flat</accidental>
        <stem>down</stem>
        <staff>1</staff>
        <beam number="1">end</beam>
      </note>
      <note default-x="130.04" default-y="5" dynamics="83.33">
        <pitch>
          <step>G</step>
          <octave>5</octave>
        </pitch>
        <duration>5040</duration>
        <voice>1</voice>
        <type>eighth</type>
        <stem>down</stem>
        <staff>1</staff>
        <beam number="1">begin</beam>
      </note>
      <note default-x="157.7" default-y="0" dynamics="83.33">
        <pitch>
          <step>F</step>
          <octave>5</octave>
        </pitch>
        <duration>5040</duration>
        <voice>1</voice>
        <type>eighth</type>
        <stem>down</stem>
        <staff>1</staff>
        <beam number="1">continue</beam>
      </note>
      <note default-x="185.37" default-y="-5" dynamics="83.33">
        <pitch>
          <step>E</step>
          <alter>-1</alter>
          <octave>5</octave>
        </pitch>
        <duration>5040</duration>
        <voice>1</voice>
        <type>eighth</type>
        <stem>down</stem>
        <staff>1</staff>
        <beam number="1">continue</beam>
      </note>
      <note default-x="213.03" default-y="-10" dynamics="83.33">
        <pitch>
          <step>D</step>
          <alter>-1</alter>
          <octave>5</octave>
        </pitch>
        <duration>5040</duration>
        <voice>1</voice>
        <type>eighth</type>
        <stem>down</stem>
        <staff>1</staff>
        <beam number="1">end</beam>
      </note>
      <backup>
        <duration>40320</duration>
      </backup>
      <note default-x="16.2" default-y="-90" dynamics="100.00">
        <pitch>
          <step>B</step>
          <alter>-1</alter>
          <octave>3</octave>
        </pitch>
        <duration>10080</duration>
        <voice>2</voice>
        <type>quarter</type>
        <stem>down</stem>
        <staff>2</staff>
        <notations>
          <articulations>
            <staccato />
          </articulations>
        </notations>
      </note>
      <note default-x="71.53" default-y="-80" dynamics="100.00">
        <pitch>
          <step>D</step>
          <alter>-1</alter>
          <octave>4</octave>
        </pitch>
        <duration>10080</duration>
        <voice>2</voice>
        <type>quarter</type>
        <accidental>flat</accidental>
        <stem>down</stem>
        <staff>2</staff>
        <notations>
          <articulations>
            <staccato />
          </articulations>
        </notations>
      </note>
      <note default-x="130.04" default-y="-65" dynamics="100.00">
        <pitch>
          <step>G</step>
          <octave>4</octave>
        </pitch>
        <duration>10080</duration>
        <voice>2</voice>
        <type>quarter</type>
        <stem>down</stem>
        <staff>2</staff>
        <notations>
          <articulations>
            <staccato />
          </articulations>
        </notations>
      </note>
      <note>
        <rest />
        <duration>10080</duration>
        <voice>2</voice>
        <type>quarter</type>
        <staff>2</staff>
      </note>
    </measure>
  </part>
</score-partwise>