<?xml version="1.0" encoding="utf-8"?>
<!DOCTYPE score-partwise  PUBLIC "-//Recordare//DTD MusicXML 3.1 Partwise//EN" "http://www.musicxml.org/dtds/partwise.dtd">
<score-partwise version="3.1">
  <work>
    <work-title>s9m4</work-title>
  </work>
  <movement-title>3.musicxml</movement-title>
  <identification>
    <creator type="composer">Beethoven. arr Liszt</creator>
    <encoding>
      <encoding-date>2026-03-11</encoding-date>
      <software>music21 v.8.3.0</software>
      <software>MuseScore 3.6.0</software>
      <supports attribute="new-system" element="print" type="yes" value="yes" />
      <supports attribute="new-page" element="print" type="yes" value="yes" />
    </encoding>
  </identification>
  <defaults>
    <scaling>
      <millimeters>7</millimeters>
      <tenths>40</tenths>
    </scaling>
  </defaults>
  <part-list>
    <score-part id="P1">
      <part-name>Piano</part-name>
      <part-abbreviation>Pno.</part-abbreviation>
      <score-instrument id="Id51e7ffcc3f24b99c38b60f533a23398">
        <instrument-name>Piano</instrument-name>
        <instrument-abbreviation>Pno</instrument-abbreviation>
      </score-instrument>
      <midi-instrument id="Id51e7ffcc3f24b99c38b60f533a23398">
        <midi-channel>1</midi-channel>
        <midi-program>1</midi-program>
      </midi-instrument>
    </score-part>
  </part-list>
  <!--=========================== Part 1 ===========================-->
  <part id="P1">
    <!--========================= Measure 9 ==========================-->
    <measure number="9" width="109.18">
      <attributes>
        <divisions>10080</divisions>
        <key>
          <fifths>-1</fifths>
        </key>
        <time>
          <beats>3</beats>
          <beat-type>4</beat-type>
        </time>
        <staves>2</staves>
        <clef number="1">
          <sign>G</sign>
          <line>2</line>
        </clef>
        <clef number="2">
          <sign>F</sign>
          <line>4</line>
        </clef>
      </attributes>
      <note>
        <rest />
        <duration>10080</duration>
        <voice>1</voice>
        <type>quarter</type>
        <staff>1</staff>
      </note>
      <note>
        <rest />
        <duration>10080</duration>
        <voice>1</voice>
        <type>quarter</type>
        <staff>1</staff>
      </note>
      <direction placement="above">
        <direction-type>
          <words enclosure="none" font-size="12" font-weight="bold" relative-y="20">Andante</words>
        </direction-type>
        <staff>1</staff>
      </direction>
      <direction placement="below">
        <direction-type>
          <words default-y="-65.51" enclosure="none" font-size="9" relative-y="-25">Bässe</words>
        </direction-type>
        <staff>1</staff>
      </direction>
      <direction placement="below">
        <direction-type>
          <dynamics default-x="6.5" default-y="-40" relative-y="-25">
            <f />
          </dynamics>
        </direction-type>
        <staff>1</staff>
        <sound dynamics="88" />
      </direction>
      <note print-object="no" print-spacing="yes">
        <rest />
        <duration>10080</duration>
        <voice>1</voice>
        <type>quarter</type>
        <staff>1</staff>
      </note>
      <backup>
        <duration>30240</duration>
      </backup>
      <note print-object="no" print-spacing="yes">
        <rest />
        <duration>20160</duration>
        <voice>2</voice>
        <type>half</type>
        <staff>2</staff>
      </note>
      <note default-x="75.92" default-y="-122.58">
        <pitch>
          <step>A</step>
          <octave>3</octave>
        </pitch>
        <duration>10080</duration>
        <voice>2</voice>
        <type>quarter</type>
        <stem>up</stem>
        <staff>2</staff>
      </note>
      <backup>
        <duration>30240</duration>
      </backup>
      <note print-object="no" print-spacing="yes">
        <rest measure="yes" />
        <duration>30240</duration>
        <voice>6</voice>
        <staff>2</staff>
      </note>
      <backup>
        <duration>30240</duration>
      </backup>
      <note>
        <rest />
        <duration>10080</duration>
        <voice>9</voice>
        <type>quarter</type>
        <staff>2</staff>
      </note>
      <note>
        <rest />
        <duration>10080</duration>
        <voice>9</voice>
        <type>quarter</type>
        <staff>2</staff>
      </note>
      <note default-x="75.92" default-y="-157.58">
        <pitch>
          <step>A</step>
          <octave>2</octave>
        </pitch>
        <duration>10080</duration>
        <voice>9</voice>
        <type>quarter</type>
        <stem>down</stem>
        <staff>2</staff>
      </note>
    </measure>
    <!--========================= Measure 10 =========================-->
    <measure number="10" width="88.53">
      <note print-object="no" print-spacing="yes">
        <rest measure="yes" />
        <duration>30240</duration>
        <voice>1</voice>
        <staff>1</staff>
      </note>
      <backup>
        <duration>30240</duration>
      </backup>
      <note default-x="16.5" default-y="-102.58">
        <pitch>
          <step>E</step>
          <octave>4</octave>
        </pitch>
        <duration>30240</duration>
        <tie type="start" />
        <voice>2</voice>
        <type>half</type>
        <dot />
        <stem>up</stem>
        <staff>2</staff>
        <notations>
          <tied type="start" />
        </notations>
      </note>
      <backup>
        <duration>30240</duration>
      </backup>
      <note print-object="no" print-spacing="yes">
        <rest measure="yes" />
        <duration>30240</duration>
        <voice>6</voice>
        <staff>2</staff>
      </note>
      <backup>
        <duration>30240</duration>
      </backup>
      <note default-x="16.5" default-y="-137.58">
        <pitch>
          <step>E</step>
          <octave>3</octave>
        </pitch>
        <duration>30240</duration>
        <tie type="start" />
        <voice>9</voice>
        <type>half</type>
        <dot />
        <stem>down</stem>
        <staff>2</staff>
        <notations>
          <tied type="start" />
        </notations>
      </note>
    </measure>
    <!--========================= Measure 11 =========================-->
    <measure number="11" width="249.79">
      <print new-system="yes">
        <system-layout>
          <system-margins>
            <left-margin>0</left-margin>
            <right-margin>0</right-margin>
          </system-margins>
          <system-distance>150</system-distance>
        </system-layout>
      </print>
      <note print-object="no" print-spacing="yes">
        <rest measure="yes" />
        <duration>30240</duration>
        <voice>1</voice>
        <staff>1</staff>
      </note>
      <backup>
        <duration>30240</duration>
      </backup>
      <attributes>
        <staff-details print-object="yes" />
      </attributes>
      <note default-x="79.48" default-y="-85">
        <pitch>
          <step>E</step>
          <octave>4</octave>
        </pitch>
        <duration>10080</duration>
        <tie type="stop" />
        <voice>2</voice>
        <type>quarter</type>
        <stem>up</stem>
        <staff>2</staff>
        <notations>
          <tied type="stop" />
        </notations>
      </note>
      <note default-x="126.17" default-y="-90">
        <pitch>
          <step>D</step>
          <octave>4</octave>
        </pitch>
        <duration>5040</duration>
        <voice>2</voice>
        <type>eighth</type>
        <stem>up</stem>
        <staff>2</staff>
        <beam number="1">begin</beam>
      </note>
      <note default-x="160.43" default-y="-95">
        <pitch>
          <step>C</step>
          <alter>1</alter>
          <octave>4</octave>
        </pitch>
        <duration>5040</duration>
        <voice>2</voice>
        <type>eighth</type>
        <accidental>sharp</accidental>
        <stem>up</stem>
        <staff>2</staff>
        <beam number="1">continue</beam>
      </note>
      <note default-x="189.62" default-y="-90">
        <pitch>
          <step>D</step>
          <octave>4</octave>
        </pitch>
        <duration>5040</duration>
        <voice>2</voice>
        <type>eighth</type>
        <stem>up</stem>
        <staff>2</staff>
        <beam number="1">continue</beam>
      </note>
      <note default-x="218.8" default-y="-85">
        <pitch>
          <step>E</step>
          <octave>4</octave>
        </pitch>
        <duration>5040</duration>
        <voice>2</voice>
        <type>eighth</type>
        <stem>up</stem>
        <staff>2</staff>
        <beam number="1">end</beam>
      </note>
      <backup>
        <duration>30240</duration>
      </backup>
      <note print-object="no" print-spacing="yes">
        <rest measure="yes" />
        <duration>30240</duration>
        <voice>6</voice>
        <staff>2</staff>
      </note>
      <backup>
        <duration>30240</duration>
      </backup>
      <note default-x="79.48" default-y="-120">
        <pitch>
          <step>E</step>
          <octave>3</octave>
        </pitch>
        <duration>10080</duration>
        <tie type="stop" />
        <voice>9</voice>
        <type>quarter</type>
        <stem>down</stem>
        <staff>2</staff>
        <notations>
          <tied type="stop" />
        </notations>
      </note>
      <note default-x="126.17" default-y="-125">
        <pitch>
          <step>D</step>
          <octave>3</octave>
        </pitch>
        <duration>5040</duration>
        <voice>9</voice>
        <type>eighth</type>
        <stem>down</stem>
        <staff>2</staff>
        <beam number="1">begin</beam>
      </note>
      <note default-x="160.43" default-y="-130">
        <pitch>
          <step>C</step>
          <alter>1</alter>
          <octave>3</octave>
        </pitch>
        <duration>5040</duration>
        <voice>9</voice>
        <type>eighth</type>
        <accidental>sharp</accidental>
        <stem>down</stem>
        <staff>2</staff>
        <beam number="1">continue</beam>
      </note>
      <note default-x="189.62" default-y="-125">
        <pitch>
          <step>D</step>
          <octave>3</octave>
        </pitch>
        <duration>5040</duration>
        <voice>9</voice>
        <type>eighth</type>
        <stem>down</stem>
        <staff>2</staff>
        <beam number="1">continue</beam>
      </note>
      <note default-x="218.8" default-y="-120">
        <pitch>
          <step>E</step>
          <octave>3</octave>
        </pitch>
        <duration>5040</duration>
        <voice>9</voice>
        <type>eighth</type>
        <stem>down</stem>
        <staff>2</staff>
        <beam number="1">end</beam>
      </note>
    </measure>
    <!--========================= Measure 12 =========================-->
    <measure number="12" width="133.61">
      <note print-object="no" print-spacing="yes">
        <rest measure="yes" />
        <duration>30240</duration>
        <voice>1</voice>
        <staff>1</staff>
      </note>
      <backup>
        <duration>30240</duration>
      </backup>
      <note default-x="16.5" default-y="-85">
        <pitch>
          <step>E</step>
          <octave>4</octave>
        </pitch>
        <duration>15120</duration>
        <voice>2</voice>
        <type>quarter</type>
        <dot />
        <stem>up</stem>
        <staff>2</staff>
      </note>
      <note default-x="59.61" default-y="-110">
        <pitch>
          <step>G</step>
          <octave>3</octave>
        </pitch>
        <duration>5040</duration>
        <voice>2</voice>
        <type>eighth</type>
        <stem>up</stem>
        <staff>2</staff>
        <beam number="1">begin</beam>
        <notations>
          <articulations>
            <staccato />
          </articulations>
        </notations>
      </note>
      <note default-x="81.71" default-y="-105">
        <pitch>
          <step>A</step>
          <octave>3</octave>
        </pitch>
        <duration>5040</duration>
        <voice>2</voice>
        <type>eighth</type>
        <stem>up</stem>
        <staff>2</staff>
        <beam number="1">continue</beam>
        <notations>
          <articulations>
            <staccato />
          </articulations>
        </notations>
      </note>
      <note default-x="103.81" default-y="-100">
        <pitch>
          <step>B</step>
          <alter>-1</alter>
          <octave>3</octave>
        </pitch>
        <duration>5040</duration>
        <voice>2</voice>
        <type>eighth</type>
        <stem>up</stem>
        <staff>2</staff>
        <beam number="1">end</beam>
        <notations>
          <articulations>
            <staccato />
          </articulations>
        </notations>
      </note>
      <backup>
        <duration>30240</duration>
      </backup>
      <note print-object="no" print-spacing="yes">
        <rest measure="yes" />
        <duration>30240</duration>
        <voice>6</voice>
        <staff>2</staff>
      </note>
      <backup>
        <duration>30240</duration>
      </backup>
      <note default-x="16.5" default-y="-120">
        <pitch>
          <step>E</step>
          <octave>3</octave>
        </pitch>
        <duration>15120</duration>
        <voice>9</voice>
        <type>quarter</type>
        <dot />
        <stem>down</stem>
        <staff>2</staff>
      </note>
      <note default-x="59.61" default-y="-145">
        <pitch>
          <step>G</step>
          <octave>2</octave>
        </pitch>
        <duration>5040</duration>
        <voice>9</voice>
        <type>eighth</type>
        <stem>down</stem>
        <staff>2</staff>
        <beam number="1">begin</beam>
        <notations>
          <articulations>
            <staccato />
          </articulations>
        </notations>
      </note>
      <note default-x="81.71" default-y="-140">
        <pitch>
          <step>A</step>
          <octave>2</octave>
        </pitch>
        <duration>5040</duration>
        <voice>9</voice>
        <type>eighth</type>
        <stem>down</stem>
        <staff>2</staff>
        <beam number="1">continue</beam>
        <notations>
          <articulations>
            <staccato />
          </articulations>
        </notations>
      </note>
      <note default-x="103.81" default-y="-135">
        <pitch>
          <step>B</step>
          <alter>-1</alter>
          <octave>2</octave>
        </pitch>
        <duration>5040</duration>
        <voice>9</voice>
        <type>eighth</type>
        <stem>down</stem>
        <staff>2</staff>
        <beam number="1">end</beam>
        <notations>
          <articulations>
            <staccato />
          </articulations>
        </notations>
      </note>
    </measure>
    <!--========================= Measure 13 =========================-->
    <measure number="13" width="186.98">
      <note print-object="no" print-spacing="yes">
        <rest measure="yes" />
        <duration>30240</duration>
        <voice>1</voice>
        <staff>1</staff>
      </note>
      <backup>
        <duration>30240</duration>
      </backup>
      <note default-x="13" default-y="-100">
        <pitch>
          <step>B</step>
          <alter>-1</alter>
          <octave>3</octave>
        </pitch>
        <duration>5040</duration>
        <voice>2</voice>
        <type>eighth</type>
        <stem>up</stem>
        <staff>2</staff>
        <beam number="1">begin</beam>
      </note>
      <note default-x="40.81" default-y="-120">
        <pitch>
          <step>E</step>
          <octave>3</octave>
        </pitch>
        <duration>5040</duration>
        <voice>2</voice>
        <type>eighth</type>
        <stem>up</stem>
        <staff>2</staff>
        <beam number="1">continue</beam>
      </note>
      <note default-x="68.62" default-y="-115">
        <pitch>
          <step>F</step>
          <octave>3</octave>
        </pitch>
        <duration>5040</duration>
        <voice>2</voice>
        <type>eighth</type>
        <stem>up</stem>
        <staff>2</staff>
        <beam number="1">continue</beam>
      </note>
      <note default-x="96.42" default-y="-110">
        <pitch>
          <step>G</step>
          <octave>3</octave>
        </pitch>
        <duration>5040</duration>
        <voice>2</voice>
        <type>eighth</type>
        <stem>up</stem>
        <staff>2</staff>
        <beam number="1">continue</beam>
      </note>
      <note default-x="129.38" default-y="-130">
        <pitch>
          <step>C</step>
          <alter>1</alter>
          <octave>3</octave>
        </pitch>
        <duration>5040</duration>
        <voice>2</voice>
        <type>eighth</type>
        <accidental>sharp</accidental>
        <stem>up</stem>
        <staff>2</staff>
        <beam number="1">continue</beam>
        <notations>
          <articulations>
            <staccato />
          </articulations>
        </notations>
      </note>
      <note default-x="157.19" default-y="-125">
        <pitch>
          <step>D</step>
          <octave>3</octave>
        </pitch>
        <duration>5040</duration>
        <voice>2</voice>
        <type>eighth</type>
        <stem>up</stem>
        <staff>2</staff>
        <beam number="1">end</beam>
        <notations>
          <articulations>
            <staccato />
          </articulations>
        </notations>
      </note>
      <backup>
        <duration>30240</duration>
      </backup>
      <note print-object="no" print-spacing="yes">
        <rest measure="yes" />
        <duration>30240</duration>
        <voice>6</voice>
        <staff>2</staff>
      </note>
      <backup>
        <duration>30240</duration>
      </backup>
      <note default-x="13" default-y="-135">
        <pitch>
          <step>B</step>
          <alter>-1</alter>
          <octave>2</octave>
        </pitch>
        <duration>5040</duration>
        <voice>9</voice>
        <type>eighth</type>
        <stem>down</stem>
        <staff>2</staff>
        <beam number="1">begin</beam>
      </note>
      <note default-x="40.81" default-y="-155">
        <pitch>
          <step>E</step>
          <octave>2</octave>
        </pitch>
        <duration>5040</duration>
        <voice>9</voice>
        <type>eighth</type>
        <stem>down</stem>
        <staff>2</staff>
        <beam number="1">continue</beam>
      </note>
      <note default-x="68.62" default-y="-150">
        <pitch>
          <step>F</step>
          <octave>2</octave>
        </pitch>
        <duration>5040</duration>
        <voice>9</voice>
        <type>eighth</type>
        <stem>down</stem>
        <staff>2</staff>
        <beam number="1">continue</beam>
      </note>
      <note default-x="96.42" default-y="-145">
        <pitch>
          <step>G</step>
          <octave>2</octave>
        </pitch>
        <duration>5040</duration>
        <voice>9</voice>
        <type>eighth</type>
        <stem>down</stem>
        <staff>2</staff>
        <beam number="1">continue</beam>
      </note>
      <note default-x="129.38" default-y="-165">
        <pitch>
          <step>C</step>
          <alter>1</alter>
          <octave>2</octave>
        </pitch>
        <duration>5040</duration>
        <voice>9</voice>
        <type>eighth</type>
        <accidental>sharp</accidental>
        <stem>down</stem>
        <staff>2</staff>
        <beam number="1">continue</beam>
        <notations>
          <articulations>
            <staccato />
          </articulations>
        </notations>
      </note>
      <note default-x="157.19" default-y="-160">
        <pitch>
          <step>D</step>
          <octave>2</octave>
        </pitch>
        <duration>5040</duration>
        <voice>9</voice>
        <type>eighth</type>
        <stem>down</stem>
        <staff>2</staff>
        <beam number="1">end</beam>
        <notations>
          <articulations>
            <staccato />
          </articulations>
        </notations>
      </note>
    </measure>
    <!--========================= Measure 14 =========================-->
    <measure number="14" width="163">
      <note print-object="no" print-spacing="yes">
        <rest measure="yes" />
        <duration>30240</duration>
        <voice>1</voice>
        <staff>1</staff>
      </note>
      <backup>
        <duration>30240</duration>
      </backup>
      <note default-x="16.5" default-y="-120">
        <pitch>
          <step>E</step>
          <octave>3</octave>
        </pitch>
        <duration>5040</duration>
        <voice>2</voice>
        <type>eighth</type>
        <stem>up</stem>
        <staff>2</staff>
        <beam number="1">begin</beam>
      </note>
      <note default-x="43.11" default-y="-145">
        <pitch>
          <step>G</step>
          <octave>2</octave>
        </pitch>
        <duration>5040</duration>
        <voice>2</voice>
        <type>eighth</type>
        <stem>up</stem>
        <staff>2</staff>
        <beam number="1">end</beam>
      </note>
      <note default-x="69.73" default-y="-145">
        <pitch>
          <step>G</step>
          <octave>2</octave>
        </pitch>
        <duration>15120</duration>
        <voice>2</voice>
        <type>quarter</type>
        <dot />
        <stem>up</stem>
        <staff>2</staff>
      </note>
      <note default-x="121.65" default-y="-140">
        <pitch>
          <step>A</step>
          <octave>2</octave>
        </pitch>
        <duration>5040</duration>
        <voice>2</voice>
        <type>eighth</type>
        <stem>up</stem>
        <staff>2</staff>
      </note>
      <backup>
        <duration>30240</duration>
      </backup>
      <note print-object="no" print-spacing="yes">
        <rest measure="yes" />
        <duration>30240</duration>
        <voice>6</voice>
        <staff>2</staff>
      </note>
      <backup>
        <duration>30240</duration>
      </backup>
      <note default-x="16.5" default-y="-155">
        <pitch>
          <step>E</step>
          <octave>2</octave>
        </pitch>
        <duration>5040</duration>
        <voice>9</voice>
        <type>eighth</type>
        <stem>down</stem>
        <staff>2</staff>
        <beam number="1">begin</beam>
      </note>
      <note default-x="43.11" default-y="-180">
        <pitch>
          <step>G</step>
          <octave>1</octave>
        </pitch>
        <duration>5040</duration>
        <voice>9</voice>
        <type>eighth</type>
        <stem>down</stem>
        <staff>2</staff>
        <beam number="1">end</beam>
      </note>
      <note default-x="69.73" default-y="-180">
        <pitch>
          <step>G</step>
          <octave>1</octave>
        </pitch>
        <duration>15120</duration>
        <voice>9</voice>
        <type>quarter</type>
        <dot />
        <stem>down</stem>
        <staff>2</staff>
      </note>
      <note default-x="121.65" default-y="-175">
        <pitch>
          <step>A</step>
          <octave>1</octave>
        </pitch>
        <duration>5040</duration>
        <voice>9</voice>
        <type>eighth</type>
        <stem>down</stem>
        <staff>2</staff>
      </note>
    </measure>
    <!--========================= Measure 15 =========================-->
    <measure number="15" width="92.8">
      <note print-object="no" print-spacing="yes">
        <rest measure="yes" />
        <duration>30240</duration>
        <voice>1</voice>
        <staff>1</staff>
      </note>
      <backup>
        <duration>30240</duration>
      </backup>
      <note default-x="16.5" default-y="-135">
        <pitch>
          <step>B</step>
          <alter>-1</alter>
          <octave>2</octave>
        </pitch>
        <duration>10080</duration>
        <voice>2</voice>
        <type>quarter</type>
        <stem>up</stem>
        <staff>2</staff>
      </note>
      <note default-x="45.15" default-y="-100">
        <pitch>
          <step>B</step>
          <alter>-1</alter>
          <octave>3</octave>
        </pitch>
        <duration>20160</duration>
        <tie type="start" />
        <voice>2</voice>
        <type>half</type>
        <stem>up</stem>
        <staff>2</staff>
        <notations>
          <tied type="start" />
          <articulations>
            <accent />
          </articulations>
        </notations>
      </note>
      <backup>
        <duration>30240</duration>
      </backup>
      <note print-object="no" print-spacing="yes">
        <rest measure="yes" />
        <duration>30240</duration>
        <voice>6</voice>
        <staff>2</staff>
      </note>
      <backup>
        <duration>30240</duration>
      </backup>
      <note default-x="16.5" default-y="-170">
        <pitch>
          <step>B</step>
          <alter>-1</alter>
          <octave>1</octave>
        </pitch>
        <duration>10080</duration>
        <voice>9</voice>
        <type>quarter</type>
        <stem>down</stem>
        <staff>2</staff>
      </note>
      <note default-x="45.15" default-y="-135">
        <pitch>
          <step>B</step>
          <alter>-1</alter>
          <octave>2</octave>
        </pitch>
        <duration>20160</duration>
        <tie type="start" />
        <voice>9</voice>
        <type>half</type>
        <stem>down</stem>
        <staff>2</staff>
        <notations>
          <tied type="start" />
          <articulations>
            <accent />
          </articulations>
        </notations>
      </note>
    </measure>
    <!--========================= Measure 16 =========================-->
    <measure number="16" width="126.16">
      <direction placement="below">
        <direction-type>
          <words>dim.</words>
        </direction-type>
        <staff>1</staff>
      </direction>
      <note print-object="no" print-spacing="yes">
        <rest measure="yes" />
        <duration>30240</duration>
        <voice>1</voice>
        <staff>1</staff>
      </note>
      <backup>
        <duration>30240</duration>
      </backup>
      <note default-x="13" default-y="-100">
        <pitch>
          <step>B</step>
          <alter>-1</alter>
          <octave>3</octave>
        </pitch>
        <duration>10080</duration>
        <tie type="stop" />
        <voice>2</voice>
        <type>quarter</type>
        <stem>up</stem>
        <staff>2</staff>
        <notations>
          <tied type="stop" />
        </notations>
      </note>
      <note default-x="45.35" default-y="-105">
        <pitch>
          <step>A</step>
          <octave>3</octave>
        </pitch>
        <duration>15120</duration>
        <voice>2</voice>
        <type>quarter</type>
        <dot />
        <stem>up</stem>
        <staff>2</staff>
      </note>
      <note default-x="84.8" default-y="-120">
        <pitch>
          <step>E</step>
          <octave>3</octave>
        </pitch>
        <duration>5040</duration>
        <voice>2</voice>
        <type>eighth</type>
        <stem>up</stem>
        <staff>2</staff>
      </note>
      <backup>
        <duration>30240</duration>
      </backup>
      <note print-object="no" print-spacing="yes">
        <rest measure="yes" />
        <duration>30240</duration>
        <voice>6</voice>
        <staff>2</staff>
      </note>
      <backup>
        <duration>30240</duration>
      </backup>
      <note default-x="13" default-y="-135">
        <pitch>
          <step>B</step>
          <alter>-1</alter>
          <octave>2</octave>
        </pitch>
        <duration>10080</duration>
        <tie type="stop" />
        <voice>9</voice>
        <type>quarter</type>
        <stem>down</stem>
        <staff>2</staff>
        <notations>
          <tied type="stop" />
        </notations>
      </note>
      <note default-x="45.35" default-y="-140">
        <pitch>
          <step>A</step>
          <octave>2</octave>
        </pitch>
        <duration>15120</duration>
        <voice>9</voice>
        <type>quarter</type>
        <dot />
        <stem>down</stem>
        <staff>2</staff>
      </note>
      <note default-x="84.8" default-y="-155">
        <pitch>
          <step>E</step>
          <octave>2</octave>
        </pitch>
        <duration>5040</duration>
        <voice>9</voice>
        <type>eighth</type>
        <stem>down</stem>
        <staff>2</staff>
      </note>
    </measure>
  </part>
</score-partwise>